<?xml version="1.0" standalone="no"?>
<!DOCTYPE svg PUBLIC "-//W3C//DTD SVG 20010904//EN"
 "http://www.w3.org/TR/2001/REC-SVG-20010904/DTD/svg10.dtd">
<svg version="1.0" xmlns="http://www.w3.org/2000/svg"
 width="3291.000000pt" height="2218.000000pt" viewBox="0 0 3291.000000 2218.000000"
 preserveAspectRatio="xMidYMid meet">

<g transform="translate(0.000000,2218.000000) scale(0.100000,-0.100000)"
fill="#000000" stroke="none">
<path d="M4580 21510 l0 -670 60 0 60 0 0 615 c0 608 0 615 20 615 18 0 20 7
20 55 l0 55 -80 0 -80 0 0 -670z"/>
<path d="M5010 21430 l0 -750 60 0 60 0 0 695 0 695 720 0 720 0 0 -605 0
-605 55 0 55 0 0 660 0 660 -835 0 -835 0 0 -750z"/>
<path d="M6570 20265 l0 -285 -85 0 -85 0 0 -60 0 -60 85 0 85 0 0 -725 0
-725 -785 0 -785 0 0 -180 0 -180 60 0 60 0 0 120 0 120 725 0 725 0 0 -395 0
-395 -725 0 -725 0 0 105 0 105 -60 0 -60 0 0 -215 0 -215 60 0 60 0 0 55 0
55 725 0 725 0 0 -395 0 -395 -725 0 -725 0 0 205 0 205 -60 0 -60 0 0 -265 0
-265 785 0 785 0 0 -365 0 -365 -725 0 -725 0 0 195 0 195 -60 0 -60 0 0 -250
0 -250 1090 0 1090 0 0 55 0 55 -165 0 -165 0 0 85 0 85 -85 0 -85 0 0 1715 0
1715 85 0 85 0 0 145 0 145 -85 0 -85 0 0 110 0 110 455 0 455 0 0 -2055 0
-2055 -50 0 -50 0 0 -55 0 -55 340 0 340 0 0 55 0 55 -235 0 -235 0 0 2055 0
2055 610 0 610 0 0 -2055 0 -2055 -115 0 -115 0 0 -55 0 -55 370 0 370 0 0 55
0 55 -200 0 -200 0 0 2055 0 2055 495 0 495 0 0 -110 0 -110 -85 0 -85 0 0
-145 0 -145 85 0 85 0 0 -1715 0 -1715 -85 0 -85 0 0 -140 0 -140 140 0 140 0
0 2110 0 2110 635 0 635 0 0 -2055 0 -2055 -435 0 -435 0 0 -55 0 -55 505 0
505 0 0 55 c0 30 -4 55 -10 55 -7 0 -10 692 -10 2055 l0 2055 570 0 570 0 0
-2055 0 -2055 -365 0 -365 0 0 -55 0 -55 420 0 420 0 0 2110 0 2110 1830 0
1830 0 0 -2530 0 -2530 -910 0 -910 0 0 -245 0 -245 55 0 55 0 0 185 0 185
855 0 855 0 0 -415 0 -415 -855 0 -855 0 0 85 0 85 -55 0 -55 0 0 -525 0 -525
55 0 55 0 0 385 0 385 855 0 855 0 0 -610 0 -610 -855 0 -855 0 0 90 0 90 -55
0 -55 0 0 -335 0 -335 55 0 55 0 0 190 0 190 855 0 855 0 0 -500 0 -500 -855
0 -855 0 0 160 0 160 -55 0 -55 0 0 -380 0 -380 55 0 55 0 0 160 0 160 855 0
855 0 0 -395 0 -395 -855 0 -855 0 0 105 0 105 -55 0 -55 0 0 -380 0 -380 55
0 55 0 0 220 0 220 855 0 855 0 0 -455 0 -455 -855 0 -855 0 0 90 0 90 -55 0
-55 0 0 -245 0 -245 55 0 55 0 0 95 0 95 855 0 855 0 0 -350 0 -350 -855 0
-855 0 0 90 0 90 -55 0 -55 0 0 -250 0 -250 55 0 55 0 0 105 0 105 855 0 855
0 0 -370 0 -370 -855 0 -855 0 0 145 0 145 -55 0 -55 0 0 -1280 0 -1280 55 0
55 0 0 1080 0 1080 855 0 855 0 0 -1025 0 -1025 -655 0 -655 0 0 -55 0 -55
710 0 710 0 0 555 0 555 800 0 800 0 0 -455 0 -455 -650 0 -650 0 0 -55 0 -55
711 0 712 0 -6 83 c-4 45 -7 308 -7 585 l0 502 -55 0 c-48 0 -55 -2 -55 -20 0
-20 -7 -20 -800 -20 l-800 0 0 390 0 390 800 0 800 0 0 -180 0 -180 55 0 55 0
0 265 0 265 -55 0 c-52 0 -55 -1 -55 -25 l0 -25 -800 0 -800 0 0 240 0 240 85
0 85 0 0 85 0 85 715 0 715 0 0 -160 0 -160 55 0 55 0 0 265 0 265 -55 0 -55
0 0 -50 0 -50 -800 0 -800 0 0 445 0 445 800 0 800 0 0 -205 0 -205 55 0 55 0
0 740 0 740 -55 0 -55 0 0 -475 0 -475 -800 0 -800 0 0 1050 0 1050 800 0 800
0 0 -415 0 -415 55 0 55 0 0 920 0 920 -55 0 -55 0 0 -445 0 -445 -800 0 -800
0 0 125 0 125 85 0 85 0 0 140 0 140 -85 0 -85 0 0 390 0 390 800 0 800 0 0
-40 0 -40 55 0 55 0 0 295 0 295 -55 0 -55 0 0 -200 0 -200 -800 0 -800 0 0
890 0 890 800 0 800 0 0 -465 0 -465 55 0 55 0 0 680 0 680 -55 0 -55 0 0
-160 0 -160 -800 0 -800 0 0 340 0 340 1100 0 1100 0 0 55 0 55 -1015 0 -1015
0 0 85 0 85 -85 0 -85 0 0 1715 0 1715 85 0 85 0 0 145 0 145 -85 0 -85 0 0
110 0 110 1315 0 1315 0 0 -2110 0 -2110 1045 0 1045 0 0 55 0 55 -450 0 -450
0 0 880 0 880 -540 0 -540 0 0 1175 0 1175 660 0 660 0 0 -1250 0 -1250 55 0
c48 0 55 2 55 20 0 17 7 20 50 20 l50 0 0 55 0 55 -50 0 -50 0 0 1175 0 1175
470 0 470 0 0 -1175 0 -1175 -300 0 -300 0 0 -55 0 -55 360 0 360 0 0 1230 0
1230 795 0 795 0 0 -1420 0 -1420 -855 0 -855 0 0 -635 0 -635 -95 0 -95 0 0
-55 0 -55 390 0 390 0 0 55 0 55 -235 0 -235 0 0 580 0 580 795 0 795 0 0
-580 0 -580 -110 0 -110 0 0 85 0 85 -140 0 -140 0 0 -85 0 -85 -30 0 c-30 0
-30 -1 -30 -55 l0 -55 335 0 335 0 0 2110 0 2110 1330 0 1330 0 0 -2110 0
-2110 140 0 140 0 0 140 0 140 -85 0 -85 0 0 1645 0 1645 570 0 570 0 0 -1705
0 -1705 -310 0 -310 0 0 -55 0 -55 365 0 365 0 0 935 0 935 690 0 690 0 0
-880 0 -880 -535 0 -535 0 0 -55 0 -55 595 0 595 0 0 1770 0 1770 -60 0 -60 0
0 -775 0 -775 -690 0 -690 0 0 730 0 730 500 0 500 0 0 55 0 55 -310 0 -310 0
0 305 0 305 45 0 45 0 0 60 0 60 -10640 0 -10640 0 0 285 0 285 -55 0 -55 0 0
-285z m20810 -675 l0 -270 -570 0 c-500 0 -570 2 -570 15 0 12 16 15 85 15
l85 0 0 145 0 145 -85 0 -85 0 0 110 0 110 570 0 570 0 0 -270z m370 -35 l0
-305 -130 0 -130 0 0 305 0 305 130 0 130 0 0 -305z m-21010 -60 c0 -21 -5
-25 -30 -25 -25 0 -30 4 -30 25 0 21 5 25 30 25 25 0 30 -4 30 -25z m3280 0
c0 -21 -5 -25 -30 -25 -25 0 -30 4 -30 25 0 21 5 25 30 25 25 0 30 -4 30 -25z
m6580 0 c0 -21 -5 -25 -30 -25 -25 0 -30 4 -30 25 0 21 5 25 30 25 25 0 30 -4
30 -25z m9700 0 c0 -21 -5 -25 -30 -25 -25 0 -30 4 -30 25 0 21 5 25 30 25 25
0 30 -4 30 -25z m-6060 -2920 l0 -825 -175 0 -175 0 0 85 0 85 -140 0 -140 0
0 -85 0 -85 -165 0 -165 0 0 825 0 825 480 0 480 0 0 -825z m-13500 -795 c0
-27 -3 -30 -30 -30 -27 0 -30 3 -30 30 0 27 3 30 30 30 27 0 30 -3 30 -30z
m3280 0 c0 -27 -3 -30 -30 -30 -27 0 -30 3 -30 30 0 27 3 30 30 30 27 0 30 -3
30 -30z m6580 0 c0 -27 -3 -30 -30 -30 -27 0 -30 3 -30 30 0 27 3 30 30 30 27
0 30 -3 30 -30z m3180 0 c0 -27 -3 -30 -30 -30 -27 0 -30 3 -30 30 0 27 3 30
30 30 27 0 30 -3 30 -30z m3250 0 c0 -27 -3 -30 -30 -30 -27 0 -30 3 -30 30 0
27 3 30 30 30 27 0 30 -3 30 -30z m3270 0 c0 -27 -3 -30 -30 -30 -27 0 -30 3
-30 30 0 27 3 30 30 30 27 0 30 -3 30 -30z m-9700 -3740 c0 -27 -3 -30 -30
-30 -27 0 -30 3 -30 30 0 27 3 30 30 30 27 0 30 -3 30 -30z m0 -3760 c0 -27
-3 -30 -30 -30 -27 0 -30 3 -30 30 0 27 3 30 30 30 27 0 30 -3 30 -30z"/>
<path d="M19873 16894 c-79 -39 -92 -148 -26 -207 20 -17 20 -18 -18 -56 -36
-35 -39 -43 -39 -93 0 -91 55 -138 160 -138 91 0 152 43 166 116 9 50 -3 85
-44 123 l-37 35 33 32 c27 27 32 39 32 81 0 55 -17 86 -60 108 -38 19 -126 19
-167 -1z m132 -59 c33 -32 33 -75 -1 -109 -31 -30 -44 -32 -85 -11 -76 40 -49
142 39 144 13 1 34 -10 47 -24z m-14 -218 c47 -32 64 -70 48 -108 -25 -63
-117 -75 -159 -22 -30 39 -26 79 14 119 40 40 52 41 97 11z"/>
<path d="M19488 16872 c-41 -23 -46 -30 -41 -52 8 -34 6 -34 52 -10 l41 20 0
-210 0 -210 35 0 35 0 0 245 0 245 -37 -1 c-22 0 -58 -12 -85 -27z"/>
<path d="M4580 20260 l0 -280 -2290 0 -2290 0 0 -9992 0 -9991 15208 6 c8364
4 15769 10 16456 14 l1249 6 -6 5711 c-4 3141 -10 7631 -14 9979 l-6 4267
-2284 0 -2283 0 0 -60 0 -60 575 0 575 0 0 -110 0 -110 -40 0 -40 0 0 -145 0
-145 140 0 140 0 0 145 0 145 -45 0 -45 0 0 110 0 110 1600 0 1600 0 0 -110 0
-110 -85 0 -85 0 0 -145 0 -145 85 0 85 0 0 -130 0 -130 -1655 0 -1655 0 0
-380 0 -380 55 0 55 0 0 320 0 320 1600 0 1600 0 0 -465 0 -465 -1655 0 -1655
0 0 -230 0 -230 55 0 55 0 0 175 0 175 1600 0 1600 0 0 -545 0 -545 -1600 0
-1600 0 0 175 0 175 -55 0 -55 0 0 -345 0 -345 55 0 55 0 0 115 0 115 1600 0
1600 0 0 -405 0 -405 -85 0 -85 0 0 -85 0 -85 -1470 0 -1470 0 0 85 0 85 -140
0 -140 0 0 -140 0 -140 40 0 40 0 0 -175 0 -175 55 0 55 0 0 175 0 175 1600 0
1600 0 0 -530 0 -530 -1600 0 -1600 0 0 205 0 205 -55 0 -55 0 0 -555 0 -555
55 0 55 0 0 290 0 290 1600 0 1600 0 0 -580 0 -580 -1600 0 -1600 0 0 75 0 75
-55 0 -55 0 0 -635 0 -635 -40 0 -40 0 0 -140 0 -140 40 0 40 0 0 -270 0 -270
55 0 55 0 0 270 0 270 45 0 45 0 0 140 0 140 -45 0 -45 0 0 500 0 500 1598 0
1599 0 6 -317 c4 -174 7 -399 7 -500 l0 -183 -90 0 -90 0 0 -140 0 -140 90 0
90 0 0 -485 0 -485 -1660 0 -1660 0 0 -60 0 -60 1660 0 1660 0 0 -645 0 -645
-1605 0 -1605 0 0 505 0 505 -55 0 -55 0 0 -765 0 -765 55 0 55 0 0 205 0 205
1605 0 1605 0 0 -495 0 -495 -90 0 -90 0 0 -140 0 -140 90 0 90 0 0 -360 0
-360 -1605 0 -1605 0 0 360 0 360 45 0 45 0 0 140 0 140 -45 0 -45 0 0 140 0
140 -55 0 -55 0 0 -140 0 -140 -40 0 -40 0 0 -140 0 -140 40 0 40 0 0 -620 0
-620 55 0 55 0 0 205 0 205 1605 0 1605 0 0 -630 0 -630 -1606 0 -1607 0 7
135 7 135 -300 0 -301 0 0 -55 0 -55 240 0 240 0 0 -750 0 -750 -40 0 -40 0 0
-85 0 -85 -525 0 -525 0 0 835 0 835 210 0 210 0 0 55 0 55 -495 0 -495 0 0
-55 0 -55 230 0 230 0 0 -835 0 -835 -375 0 -375 0 0 890 0 890 -390 0 -390 0
0 -55 0 -55 335 0 335 0 0 -835 0 -835 -480 0 -480 0 0 85 0 85 -40 0 -40 0 0
750 c0 493 3 750 10 750 6 0 10 25 10 55 l0 55 -285 0 -285 0 0 -55 0 -55 215
0 215 0 0 -750 0 -750 -40 0 -40 0 0 -85 0 -85 -300 0 -300 0 0 890 0 890
-350 0 -350 0 0 -55 0 -55 290 0 290 0 0 -835 0 -835 -420 0 -420 0 0 890 0
890 -350 0 -350 0 0 -55 0 -55 295 0 295 0 0 -835 0 -835 -390 0 -390 0 0 890
0 890 -225 0 -225 0 0 -55 0 -55 170 0 170 0 0 -835 0 -835 -215 0 -215 0 0
85 0 85 -85 0 -85 0 0 805 0 805 -125 0 -125 0 0 -55 0 -55 70 0 70 0 0 -465
0 -465 -270 0 -270 0 0 465 0 465 75 0 75 0 0 55 0 55 -130 0 -130 0 0 -1125
0 -1125 55 0 55 0 0 180 0 180 3955 0 3955 0 0 -180 0 -180 55 0 55 0 0 235 0
235 -335 0 -335 0 0 85 0 85 -45 0 -45 0 0 610 0 610 1605 0 1605 0 0 -158 c0
-87 3 -362 7 -610 l6 -452 -96 0 -97 0 0 -85 0 -85 -815 0 -815 0 0 -55 0 -55
910 0 910 0 0 -565 0 -565 -1290 0 -1290 0 0 -60 0 -60 1290 0 1290 0 0 -985
0 -985 -95 0 -95 0 0 -140 0 -140 95 0 95 0 0 -400 0 -400 -1353 0 c-745 0
-2725 -3 -4400 -7 l-3047 -6 0 141 0 142 -55 0 -55 0 0 -140 0 -140 -460 0
-460 0 0 405 0 405 85 0 85 0 0 85 0 85 375 0 375 0 0 -180 0 -180 55 0 55 0
0 1590 0 1590 -55 0 -55 0 0 -1355 0 -1355 -460 0 -460 0 0 1135 0 1135 150 0
150 0 0 165 0 165 195 0 195 0 0 55 0 55 -255 0 -255 0 0 -165 0 -165 -470 0
-470 0 0 -55 0 -55 325 0 325 0 0 -1680 0 -1680 -3293 0 c-1812 0 -4408 -3
-5770 -7 l-2477 -6 0 1351 0 1352 1980 0 1980 0 0 810 0 810 715 0 715 0 0
140 0 140 -140 0 -140 0 0 -85 0 -85 -1495 0 -1495 0 0 85 0 85 -140 0 -140 0
0 -85 0 -85 -975 0 -975 0 0 -2215 0 -2215 -4095 0 -4095 0 0 645 0 645 850 0
850 0 0 470 0 470 -55 0 -55 0 0 -415 0 -415 -850 0 -850 0 0 -700 0 -700
-597 0 c-329 0 -959 -3 -1400 -7 l-803 -6 0 416 0 417 85 0 85 0 0 140 0 140
-85 0 -85 0 0 1000 0 1000 1415 0 1415 0 0 -575 0 -575 60 0 60 0 0 630 0 630
-1475 0 -1475 0 0 555 0 555 910 0 910 0 0 55 0 55 -825 0 -825 0 0 85 0 85
-85 0 -85 0 0 660 0 660 1660 0 1660 0 0 -660 0 -660 -40 0 -40 0 0 -85 0 -85
-370 0 -370 0 0 -295 0 -295 60 0 60 0 0 240 0 240 455 0 455 0 0 -250 0 -250
55 0 55 0 0 305 0 305 -60 0 -60 0 0 85 0 85 -45 0 -45 0 0 1025 0 1025 -55 0
-55 0 0 -310 0 -310 -1660 0 -1660 0 0 525 0 525 1660 0 1660 0 0 -70 0 -70
55 0 55 0 0 190 0 190 -55 0 -55 0 0 -65 0 -65 -1660 0 -1660 0 0 420 0 420
85 0 85 0 0 60 0 60 1535 0 1535 0 0 -60 0 -60 40 0 40 0 0 -185 0 -185 55 0
55 0 0 185 0 185 45 0 45 0 0 140 0 140 -45 0 -45 0 0 135 0 135 -55 0 -55 0
0 -135 0 -135 -40 0 c-36 0 -40 -2 -40 -25 l0 -25 -1535 0 -1535 0 0 25 c0 25
-1 25 -85 25 l-85 0 0 495 0 495 1660 0 1660 0 0 -170 0 -170 55 0 55 0 0 390
0 390 -55 0 -55 0 0 -165 0 -165 -1660 0 -1660 0 0 635 0 635 1660 0 1660 0 0
-320 0 -320 55 0 55 0 0 610 0 610 -55 0 -55 0 0 -230 0 -230 -1660 0 -1660 0
0 495 0 495 1660 0 1660 0 0 -160 0 -160 55 0 55 0 0 160 0 160 45 0 45 0 0
140 0 140 -140 0 -140 0 0 -85 0 -85 -1535 0 -1535 0 0 85 0 85 -85 0 -85 0 0
300 0 300 1660 0 1660 0 0 -200 0 -200 55 0 55 0 0 395 0 395 -55 0 -55 0 0
-135 0 -135 -1660 0 -1660 0 0 780 0 780 1660 0 1660 0 0 -465 0 -465 55 0 55
0 0 520 0 520 -1715 0 -1715 0 0 535 0 535 1660 0 1660 0 0 -355 0 -355 55 0
55 0 0 355 0 355 45 0 45 0 0 140 0 140 -140 0 -140 0 0 -85 0 -85 -1535 0
-1535 0 0 85 0 85 -85 0 -85 0 0 650 0 650 2130 0 2130 0 0 -735 0 -735 -210
0 -210 0 0 -55 0 -55 265 0 265 0 0 850 0 850 -2185 0 -2185 0 0 575 0 575
2130 0 2130 0 0 -465 0 -465 55 0 55 0 0 520 0 520 -2185 0 -2185 0 0 375 0
375 85 0 85 0 0 145 0 145 -85 0 -85 0 0 110 0 110 2130 0 2130 0 0 -480 0
-480 55 0 55 0 0 480 0 480 110 0 110 0 0 340 0 340 -60 0 -60 0 0 -280z
m-4410 -765 c0 -21 -5 -25 -30 -25 -25 0 -30 4 -30 25 0 21 5 25 30 25 25 0
30 -4 30 -25z m29390 0 c0 -21 -5 -25 -30 -25 -25 0 -30 4 -30 25 0 21 5 25
30 25 25 0 30 -4 30 -25z m3220 0 c0 -21 -5 -25 -30 -25 -25 0 -30 4 -30 25 0
21 5 25 30 25 25 0 30 -4 30 -25z m-32610 -3715 c0 -27 -3 -30 -30 -30 -27 0
-30 3 -30 30 0 27 3 30 30 30 27 0 30 -3 30 -30z m3350 0 c0 -27 -3 -30 -30
-30 -27 0 -30 3 -30 30 0 27 3 30 30 30 27 0 30 -3 30 -30z m26040 0 c0 -27
-3 -30 -30 -30 -27 0 -30 3 -30 30 0 27 3 30 30 30 27 0 30 -3 30 -30z m3220
0 c0 -27 -3 -30 -30 -30 -27 0 -30 3 -30 30 0 27 3 30 30 30 27 0 30 -3 30
-30z m-32610 -3740 c0 -27 -3 -30 -30 -30 -27 0 -30 3 -30 30 0 27 3 30 30 30
27 0 30 -3 30 -30z m3350 0 c0 -27 -3 -30 -30 -30 -27 0 -30 3 -30 30 0 27 3
30 30 30 27 0 30 -3 30 -30z m26040 0 c0 -27 -3 -30 -30 -30 -27 0 -30 3 -30
30 0 27 3 30 30 30 27 0 30 -3 30 -30z m3220 0 c0 -27 -3 -30 -30 -30 -27 0
-30 3 -30 30 0 27 3 30 30 30 27 0 30 -3 30 -30z m-32610 -3760 c0 -27 -3 -30
-30 -30 -27 0 -30 3 -30 30 0 27 3 30 30 30 27 0 30 -3 30 -30z m3350 0 c0
-27 -3 -30 -30 -30 -27 0 -30 3 -30 30 0 27 3 30 30 30 27 0 30 -3 30 -30z
m26040 0 c0 -27 -3 -30 -30 -30 -27 0 -30 3 -30 30 0 27 3 30 30 30 27 0 30
-3 30 -30z m3220 0 c0 -27 -3 -30 -30 -30 -27 0 -30 3 -30 30 0 27 3 30 30 30
27 0 30 -3 30 -30z m-9920 -3425 l0 -315 -270 0 -270 0 0 315 0 315 270 0 270
0 0 -315z m-22690 -285 c0 -27 -3 -30 -30 -30 -27 0 -30 3 -30 30 0 27 3 30
30 30 27 0 30 -3 30 -30z m3350 0 c0 -27 -3 -30 -30 -30 -27 0 -30 3 -30 30 0
27 3 30 30 30 27 0 30 -3 30 -30z m9810 0 c0 -27 -3 -30 -30 -30 -27 0 -30 3
-30 30 0 27 3 30 30 30 27 0 30 -3 30 -30z m3270 0 c0 -27 -3 -30 -30 -30 -27
0 -30 3 -30 30 0 27 3 30 30 30 27 0 30 -3 30 -30z m6430 0 c0 -27 -3 -30 -30
-30 -27 0 -30 3 -30 30 0 27 3 30 30 30 27 0 30 -3 30 -30z m3270 0 c0 -27 -3
-30 -30 -30 -27 0 -30 3 -30 30 0 27 3 30 30 30 27 0 30 -3 30 -30z m3260 0
c0 -27 -3 -30 -30 -30 -27 0 -30 3 -30 30 0 27 3 30 30 30 27 0 30 -3 30 -30z
m3220 0 c0 -27 -3 -30 -30 -30 -27 0 -30 3 -30 30 0 27 3 30 30 30 27 0 30 -3
30 -30z m-17610 -895 l0 -755 -1925 0 -1925 0 0 755 0 755 1925 0 1925 0 0
-755z m-15000 -2605 c0 -27 -3 -30 -30 -30 -27 0 -30 3 -30 30 0 27 3 30 30
30 27 0 30 -3 30 -30z m22860 0 c0 -27 -3 -30 -30 -30 -27 0 -30 3 -30 30 0
27 3 30 30 30 27 0 30 -3 30 -30z m9750 0 c0 -27 -3 -30 -30 -30 -27 0 -30 3
-30 30 0 27 3 30 30 30 27 0 30 -3 30 -30z"/>
<path d="M5010 20145 l0 -285 130 0 130 0 0 60 0 60 -70 0 -70 0 0 225 0 225
-60 0 -60 0 0 -285z"/>
<path d="M31018 19682 c-41 -23 -46 -30 -41 -52 8 -34 6 -34 52 -10 l41 20 0
-210 0 -210 35 0 35 0 0 245 0 245 -37 -1 c-22 0 -58 -12 -85 -27z"/>
<path d="M3350 19495 l0 -145 140 0 140 0 0 145 0 145 -140 0 -140 0 0 -145z
m170 0 c0 -21 -5 -25 -30 -25 -25 0 -30 4 -30 25 0 21 5 25 30 25 25 0 30 -4
30 -25z"/>
<path d="M13160 19495 l0 -145 140 0 140 0 0 145 0 145 -140 0 -140 0 0 -145z
m170 0 c0 -21 -5 -25 -30 -25 -25 0 -30 4 -30 25 0 21 5 25 30 25 25 0 30 -4
30 -25z"/>
<path d="M19610 19495 l0 -145 140 0 140 0 0 145 0 145 -140 0 -140 0 0 -145z
m170 0 c0 -21 -5 -25 -30 -25 -25 0 -30 4 -30 25 0 21 5 25 30 25 25 0 30 -4
30 -25z"/>
<path d="M22860 19495 l0 -145 140 0 140 0 0 145 0 145 -140 0 -140 0 0 -145z
m170 0 c0 -21 -5 -25 -30 -25 -25 0 -30 4 -30 25 0 21 5 25 30 25 25 0 30 -4
30 -25z"/>
<path d="M2123 19444 c-79 -39 -92 -148 -26 -207 20 -17 20 -18 -18 -56 -36
-35 -39 -43 -39 -93 0 -91 55 -138 160 -138 91 0 152 43 166 116 9 50 -3 85
-44 123 l-37 35 33 32 c27 27 32 39 32 81 0 55 -17 86 -60 108 -38 19 -126 19
-167 -1z m132 -59 c33 -32 33 -75 -1 -109 -31 -30 -44 -32 -85 -11 -76 40 -49
142 39 144 13 1 34 -10 47 -24z m-14 -218 c47 -32 64 -70 48 -108 -25 -63
-117 -75 -159 -22 -30 39 -26 79 14 119 40 40 52 41 97 11z"/>
<path d="M1706 19418 c-34 -209 -34 -212 8 -204 49 9 115 -8 145 -38 20 -20
25 -35 25 -68 -3 -81 -87 -120 -183 -87 -37 13 -37 13 -46 -22 -6 -24 -3 -28
30 -39 20 -7 67 -10 105 -8 83 4 130 35 155 103 44 115 -25 215 -149 215 l-49
0 7 38 c3 20 6 47 6 60 0 21 3 22 95 22 l95 0 0 30 0 30 -120 0 -119 0 -5 -32z"/>
<path d="M19648 18872 c-41 -23 -46 -30 -41 -52 8 -34 6 -34 52 -10 l41 20 0
-210 0 -210 35 0 35 0 0 245 0 245 -37 -1 c-22 0 -58 -12 -85 -27z"/>
<path d="M19960 18870 l0 -30 115 0 c63 0 115 -2 115 -4 0 -1 -45 -96 -100
-209 -55 -113 -100 -208 -100 -211 0 -3 17 -6 38 -6 l37 1 103 217 c56 119
102 229 102 245 l0 27 -155 0 -155 0 0 -30z"/>
<path d="M21365 18874 c-87 -31 -144 -105 -166 -217 -32 -159 41 -277 171
-277 100 0 160 63 160 168 0 114 -51 166 -157 160 -43 -3 -68 -10 -82 -22 -26
-24 -26 -16 -2 32 34 66 104 112 171 112 27 0 30 3 30 30 0 29 -2 30 -42 29
-24 0 -61 -7 -83 -15z m69 -256 c25 -27 28 -36 24 -80 -13 -126 -150 -138
-186 -17 -11 38 -10 49 3 77 17 38 67 64 105 56 14 -2 38 -19 54 -36z"/>
<path d="M20908 18852 c-41 -23 -46 -30 -41 -52 8 -34 6 -34 52 -10 l41 20 0
-210 0 -210 35 0 35 0 0 245 0 245 -37 -1 c-22 0 -58 -12 -85 -27z"/>
<path d="M22308 18832 c-41 -23 -46 -30 -41 -52 8 -34 6 -34 52 -10 l41 20 0
-210 0 -210 35 0 35 0 0 245 0 245 -37 -1 c-22 0 -58 -12 -85 -27z"/>
<path d="M22656 18828 c-34 -209 -34 -212 8 -204 49 9 115 -8 145 -38 20 -20
25 -35 25 -68 -3 -81 -87 -120 -183 -87 -37 13 -37 13 -46 -22 -6 -24 -3 -28
30 -39 20 -7 67 -10 105 -8 83 4 130 35 155 103 44 115 -25 215 -149 215 l-49
0 7 38 c3 20 6 47 6 60 0 21 3 22 95 22 l95 0 0 30 0 30 -120 0 -119 0 -5 -32z"/>
<path d="M30997 18739 c-34 -18 -38 -24 -32 -47 4 -15 8 -28 9 -29 1 -2 20 6
41 17 75 38 145 15 159 -51 11 -56 -30 -125 -138 -233 -58 -57 -96 -104 -96
-116 0 -19 6 -20 160 -20 l160 0 0 30 0 30 -101 0 -101 0 67 72 c95 103 120
149 120 223 -1 101 -47 145 -152 145 -38 -1 -71 -8 -96 -21z"/>
<path d="M27898 18692 c-41 -23 -46 -30 -41 -52 8 -34 6 -34 52 -10 l41 20 0
-210 0 -210 35 0 35 0 0 245 0 245 -37 -1 c-22 0 -58 -12 -85 -27z"/>
<path d="M28288 18692 c-41 -23 -46 -30 -41 -52 8 -34 6 -34 52 -10 l41 20 0
-210 0 -210 35 0 35 0 0 245 0 245 -37 -1 c-22 0 -58 -12 -85 -27z"/>
<path d="M17920 18208 c-55 -38 -74 -71 -78 -142 -5 -75 13 -117 61 -147 43
-27 145 -23 178 6 l21 20 -16 -40 c-32 -77 -98 -125 -171 -125 -32 0 -35 -2
-35 -30 0 -29 1 -30 48 -30 28 0 67 10 98 24 96 45 144 136 144 275 0 89 -21
143 -69 184 -44 36 -131 39 -181 5z m116 -43 c53 -22 82 -112 53 -167 -17 -32
-74 -51 -115 -38 -96 32 -78 197 24 219 1 1 18 -6 38 -14z"/>
<path d="M17538 18192 c-41 -23 -46 -30 -41 -52 8 -34 6 -34 52 -10 l41 20 0
-210 0 -210 35 0 35 0 0 245 0 245 -37 -1 c-22 0 -58 -12 -85 -27z"/>
<path d="M2120 18188 c-55 -38 -74 -71 -78 -142 -5 -75 13 -117 61 -147 43
-27 145 -23 178 6 l21 20 -16 -40 c-32 -77 -98 -125 -171 -125 -32 0 -35 -2
-35 -30 0 -29 1 -30 48 -30 28 0 67 10 98 24 96 45 144 136 144 275 0 89 -21
143 -69 184 -44 36 -131 39 -181 5z m116 -43 c53 -22 82 -112 53 -167 -17 -32
-74 -51 -115 -38 -96 32 -78 197 24 219 1 1 18 -6 38 -14z"/>
<path d="M1706 18168 c-34 -209 -34 -212 8 -204 49 9 115 -8 145 -38 20 -20
25 -35 25 -68 -3 -81 -87 -120 -183 -87 -37 13 -37 13 -46 -22 -6 -24 -3 -28
30 -39 20 -7 67 -10 105 -8 83 4 130 35 155 103 44 115 -25 215 -149 215 l-49
0 7 38 c3 20 6 47 6 60 0 21 3 22 95 22 l95 0 0 30 0 30 -120 0 -119 0 -5 -32z"/>
<path d="M5536 18108 c-34 -209 -34 -212 8 -204 49 9 115 -8 145 -38 20 -20
25 -35 25 -68 -3 -81 -87 -120 -183 -87 -37 13 -37 13 -46 -22 -6 -24 -3 -28
30 -39 20 -7 67 -10 105 -8 83 4 130 35 155 103 44 115 -25 215 -149 215 l-49
0 7 38 c3 20 6 47 6 60 0 21 3 22 95 22 l95 0 0 30 0 30 -120 0 -119 0 -5 -32z"/>
<path d="M5870 18110 l0 -30 115 0 c63 0 115 -2 115 -4 0 -1 -45 -96 -100
-209 -55 -113 -100 -208 -100 -211 0 -3 17 -6 38 -6 l37 1 103 217 c56 119
102 229 102 245 l0 27 -155 0 -155 0 0 -30z"/>
<path d="M7320 18123 c-26 -10 -61 -47 -83 -88 -19 -35 -22 -56 -22 -160 0
-106 3 -126 24 -168 30 -61 70 -87 135 -87 65 0 108 28 138 88 20 42 23 61 23
172 0 111 -3 130 -23 168 -29 55 -74 82 -132 81 -25 0 -52 -3 -60 -6z m98 -68
c36 -30 52 -87 52 -182 0 -121 -36 -195 -95 -195 -63 0 -100 86 -93 217 5 92
29 153 68 172 33 17 34 17 68 -12z"/>
<path d="M8043 18115 c-33 -14 -41 -36 -25 -63 7 -10 14 -10 38 3 63 33 128
16 148 -39 14 -40 -54 -96 -119 -96 -20 0 -25 -5 -25 -24 0 -20 6 -24 45 -29
66 -10 102 -31 115 -71 9 -28 8 -40 -5 -65 -8 -17 -24 -35 -34 -41 -28 -15
-96 -12 -137 5 -34 14 -35 14 -44 -11 -6 -14 -10 -27 -10 -30 0 -14 77 -34
130 -34 115 0 171 44 178 139 4 54 2 60 -28 94 -18 21 -39 37 -48 37 -11 0 -6
10 17 34 59 61 50 155 -19 191 -36 19 -134 19 -177 0z"/>
<path d="M8460 18108 c-55 -38 -74 -71 -78 -142 -5 -75 13 -117 61 -147 43
-27 145 -23 178 6 l21 20 -16 -40 c-32 -77 -98 -125 -171 -125 -32 0 -35 -2
-35 -30 0 -29 1 -30 48 -30 28 0 67 10 98 24 96 45 144 136 144 275 0 89 -21
143 -69 184 -44 36 -131 39 -181 5z m116 -43 c53 -22 82 -112 53 -167 -17 -32
-74 -51 -115 -38 -96 32 -78 197 24 219 1 1 18 -6 38 -14z"/>
<path d="M9263 18115 c-33 -14 -41 -36 -25 -63 7 -10 14 -10 38 3 63 33 128
16 148 -39 14 -40 -54 -96 -119 -96 -20 0 -25 -5 -25 -24 0 -20 6 -24 45 -29
66 -10 102 -31 115 -71 9 -28 8 -40 -5 -65 -8 -17 -24 -35 -34 -41 -28 -15
-96 -12 -137 5 -34 14 -35 14 -44 -11 -6 -14 -10 -27 -10 -30 0 -14 77 -34
130 -34 115 0 171 44 178 139 4 54 2 60 -28 94 -18 21 -39 37 -48 37 -11 0 -6
10 17 34 59 61 50 155 -19 191 -36 19 -134 19 -177 0z"/>
<path d="M9683 18114 c-79 -39 -92 -148 -26 -207 20 -17 20 -18 -18 -56 -36
-35 -39 -43 -39 -93 0 -91 55 -138 160 -138 91 0 152 43 166 116 9 50 -3 85
-44 123 l-37 35 33 32 c27 27 32 39 32 81 0 55 -17 86 -60 108 -38 19 -126 19
-167 -1z m132 -59 c33 -32 33 -75 -1 -109 -31 -30 -44 -32 -85 -11 -76 40 -49
142 39 144 13 1 34 -10 47 -24z m-14 -218 c47 -32 64 -70 48 -108 -25 -63
-117 -75 -159 -22 -30 39 -26 79 14 119 40 40 52 41 97 11z"/>
<path d="M10513 18115 c-33 -14 -41 -36 -25 -63 7 -10 14 -10 38 3 63 33 128
16 148 -39 14 -40 -54 -96 -119 -96 -20 0 -25 -5 -25 -24 0 -20 6 -24 45 -29
66 -10 102 -31 115 -71 9 -28 8 -40 -5 -65 -8 -17 -24 -35 -34 -41 -28 -15
-96 -12 -137 5 -34 14 -35 14 -44 -11 -6 -14 -10 -27 -10 -30 0 -14 77 -34
130 -34 115 0 171 44 178 139 4 54 2 60 -28 94 -18 21 -39 37 -48 37 -11 0 -6
10 17 34 59 61 50 155 -19 191 -36 19 -134 19 -177 0z"/>
<path d="M11783 18115 c-33 -14 -41 -36 -25 -63 7 -10 14 -10 38 3 63 33 128
16 148 -39 14 -40 -54 -96 -119 -96 -20 0 -25 -5 -25 -24 0 -20 6 -24 45 -29
66 -10 102 -31 115 -71 9 -28 8 -40 -5 -65 -8 -17 -24 -35 -34 -41 -28 -15
-96 -12 -137 5 -34 14 -35 14 -44 -11 -6 -14 -10 -27 -10 -30 0 -14 77 -34
130 -34 115 0 171 44 178 139 4 54 2 60 -28 94 -18 21 -39 37 -48 37 -11 0 -6
10 17 34 59 61 50 155 -19 191 -36 19 -134 19 -177 0z"/>
<path d="M12275 18114 c-87 -31 -144 -105 -166 -217 -32 -159 41 -277 171
-277 100 0 160 63 160 168 0 114 -51 166 -157 160 -43 -3 -68 -10 -82 -22 -26
-24 -26 -16 -2 32 34 66 104 112 171 112 27 0 30 3 30 30 0 29 -2 30 -42 29
-24 0 -61 -7 -83 -15z m69 -256 c25 -27 28 -36 24 -80 -13 -126 -150 -138
-186 -17 -11 38 -10 49 3 77 17 38 67 64 105 56 14 -2 38 -19 54 -36z"/>
<path d="M6906 17965 c-66 -96 -106 -164 -106 -180 l0 -25 110 0 110 0 0 -65
0 -65 35 0 35 0 0 65 0 65 35 0 c31 0 35 3 35 25 0 22 -4 25 -35 25 l-35 0 0
155 0 155 -39 0 -40 0 -105 -155z m114 -50 l0 -105 -74 0 -75 0 72 104 c40 58
73 105 75 105 1 1 2 -46 2 -104z"/>
<path d="M10860 18090 l0 -30 115 0 c63 0 115 -2 115 -4 0 -1 -45 -96 -100
-209 -55 -113 -100 -208 -100 -211 0 -3 17 -6 38 -6 l37 1 103 217 c56 119
102 229 102 245 l0 27 -155 0 -155 0 0 -30z"/>
<path d="M26853 17945 c-33 -14 -41 -36 -25 -63 7 -10 14 -10 38 3 63 33 128
16 148 -39 14 -40 -54 -96 -119 -96 -20 0 -25 -5 -25 -24 0 -20 6 -24 45 -29
66 -10 102 -31 115 -71 9 -28 8 -40 -5 -65 -8 -17 -24 -35 -34 -41 -28 -15
-96 -12 -137 5 -34 14 -35 14 -44 -11 -6 -14 -10 -27 -10 -30 0 -14 77 -34
130 -34 115 0 171 44 178 139 4 54 2 60 -28 94 -18 21 -39 37 -48 37 -11 0 -6
10 17 34 59 61 50 155 -19 191 -36 19 -134 19 -177 0z"/>
<path d="M26498 17922 c-41 -23 -46 -30 -41 -52 8 -34 6 -34 52 -10 l41 20 0
-210 0 -210 35 0 35 0 0 245 0 245 -37 -1 c-22 0 -58 -12 -85 -27z"/>
<path d="M30993 17615 c-33 -14 -41 -36 -25 -63 7 -10 14 -10 38 3 63 33 128
16 148 -39 14 -40 -54 -96 -119 -96 -20 0 -25 -5 -25 -24 0 -20 6 -24 45 -29
66 -10 102 -31 115 -71 9 -28 8 -40 -5 -65 -8 -17 -24 -35 -34 -41 -28 -15
-96 -12 -137 5 -34 14 -35 14 -44 -11 -6 -14 -10 -27 -10 -30 0 -14 77 -34
130 -34 115 0 171 44 178 139 4 54 2 60 -28 94 -18 21 -39 37 -48 37 -11 0 -6
10 17 34 59 61 50 155 -19 191 -36 19 -134 19 -177 0z"/>
<path d="M6025 17264 c-87 -31 -144 -105 -166 -217 -32 -159 41 -277 171 -277
100 0 160 63 160 168 0 114 -51 166 -157 160 -43 -3 -68 -10 -82 -22 -26 -24
-26 -16 -2 32 34 66 104 112 171 112 27 0 30 3 30 30 0 29 -2 30 -42 29 -24 0
-61 -7 -83 -15z m69 -256 c25 -27 28 -36 24 -80 -13 -126 -150 -138 -186 -17
-11 38 -10 49 3 77 17 38 67 64 105 56 14 -2 38 -19 54 -36z"/>
<path d="M5536 17238 c-34 -209 -34 -212 8 -204 49 9 115 -8 145 -38 20 -20
25 -35 25 -68 -3 -81 -87 -120 -183 -87 -37 13 -37 13 -46 -22 -6 -24 -3 -28
30 -39 20 -7 67 -10 105 -8 83 4 130 35 155 103 44 115 -25 215 -149 215 l-49
0 7 38 c3 20 6 47 6 60 0 21 3 22 95 22 l95 0 0 30 0 30 -120 0 -119 0 -5 -32z"/>
<path d="M28257 17019 c-34 -18 -38 -24 -32 -47 4 -15 8 -28 9 -29 1 -2 20 6
41 17 75 38 145 15 159 -51 11 -56 -30 -125 -138 -233 -58 -57 -96 -104 -96
-116 0 -19 6 -20 160 -20 l160 0 0 30 0 30 -101 0 -101 0 67 72 c95 103 120
149 120 223 -1 101 -47 145 -152 145 -38 -1 -71 -8 -96 -21z"/>
<path d="M27898 17002 c-41 -23 -46 -30 -41 -52 8 -34 6 -34 52 -10 l41 20 0
-210 0 -210 35 0 35 0 0 245 0 245 -37 -1 c-22 0 -58 -12 -85 -27z"/>
<path d="M1705 16744 c-87 -31 -144 -105 -166 -217 -32 -159 41 -277 171 -277
100 0 160 63 160 168 0 114 -51 166 -157 160 -43 -3 -68 -10 -82 -22 -26 -24
-26 -16 -2 32 34 66 104 112 171 112 27 0 30 3 30 30 0 29 -2 30 -42 29 -24 0
-61 -7 -83 -15z m69 -256 c25 -27 28 -36 24 -80 -13 -126 -150 -138 -186 -17
-11 38 -10 49 3 77 17 38 67 64 105 56 14 -2 38 -19 54 -36z"/>
<path d="M2040 16753 c-26 -10 -61 -47 -83 -88 -19 -35 -22 -56 -22 -160 0
-106 3 -126 24 -168 30 -61 70 -87 135 -87 65 0 108 28 138 88 20 42 23 61 23
172 0 111 -3 130 -23 168 -29 55 -74 82 -132 81 -25 0 -52 -3 -60 -6z m98 -68
c36 -30 52 -87 52 -182 0 -121 -36 -195 -95 -195 -63 0 -100 86 -93 217 5 92
29 153 68 172 33 17 34 17 68 -12z"/>
<path d="M22238 16602 c-41 -23 -46 -30 -41 -52 8 -34 6 -34 52 -10 l41 20 0
-210 0 -210 35 0 35 0 0 245 0 245 -37 -1 c-22 0 -58 -12 -85 -27z"/>
<path d="M22626 16475 c-66 -96 -106 -164 -106 -180 l0 -25 110 0 110 0 0 -65
0 -65 35 0 35 0 0 65 0 65 35 0 c31 0 35 3 35 25 0 22 -4 25 -35 25 l-35 0 0
155 0 155 -39 0 -40 0 -105 -155z m114 -50 l0 -105 -74 0 -75 0 72 104 c40 58
73 105 75 105 1 1 2 -46 2 -104z"/>
<path d="M31026 16325 c-66 -96 -106 -164 -106 -180 l0 -25 110 0 110 0 0 -65
0 -65 35 0 35 0 0 65 0 65 35 0 c31 0 35 3 35 25 0 22 -4 25 -35 25 l-35 0 0
155 0 155 -39 0 -40 0 -105 -155z m114 -50 l0 -105 -74 0 -75 0 72 104 c40 58
73 105 75 105 1 1 2 -46 2 -104z"/>
<path d="M5536 16338 c-34 -209 -34 -212 8 -204 49 9 115 -8 145 -38 20 -20
25 -35 25 -68 -3 -81 -87 -120 -183 -87 -37 13 -37 13 -46 -22 -6 -24 -3 -28
30 -39 20 -7 67 -10 105 -8 83 4 130 35 155 103 44 115 -25 215 -149 215 l-49
0 7 38 c3 20 6 47 6 60 0 21 3 22 95 22 l95 0 0 30 0 30 -120 0 -119 0 -5 -32z"/>
<path d="M5916 16338 c-34 -209 -34 -212 8 -204 49 9 115 -8 145 -38 20 -20
25 -35 25 -68 -3 -81 -87 -120 -183 -87 -37 13 -37 13 -46 -22 -6 -24 -3 -28
30 -39 20 -7 67 -10 105 -8 83 4 130 35 155 103 44 115 -25 215 -149 215 l-49
0 7 38 c3 20 6 47 6 60 0 21 3 22 95 22 l95 0 0 30 0 30 -120 0 -119 0 -5 -32z"/>
<path d="M13160 15780 l0 -140 140 0 140 0 0 140 0 140 -140 0 -140 0 0 -140z
m170 0 c0 -27 -3 -30 -30 -30 -27 0 -30 3 -30 30 0 27 3 30 30 30 27 0 30 -3
30 -30z"/>
<path d="M17087 15549 c-34 -18 -38 -24 -32 -47 4 -15 8 -28 9 -29 1 -2 20 6
41 17 75 38 145 15 159 -51 11 -56 -30 -125 -138 -233 -58 -57 -96 -104 -96
-116 0 -19 6 -20 160 -20 l160 0 0 30 0 30 -101 0 -101 0 67 72 c95 103 120
149 120 223 -1 101 -47 145 -152 145 -38 -1 -71 -8 -96 -21z"/>
<path d="M17530 15563 c-26 -10 -61 -47 -83 -88 -19 -35 -22 -56 -22 -160 0
-106 3 -126 24 -168 30 -61 70 -87 135 -87 65 0 108 28 138 88 20 42 23 61 23
172 0 111 -3 130 -23 168 -29 55 -74 82 -132 81 -25 0 -52 -3 -60 -6z m98 -68
c36 -30 52 -87 52 -182 0 -121 -36 -195 -95 -195 -63 0 -100 86 -93 217 5 92
29 153 68 172 33 17 34 17 68 -12z"/>
<path d="M1615 15354 c-87 -31 -144 -105 -166 -217 -32 -159 41 -277 171 -277
100 0 160 63 160 168 0 114 -51 166 -157 160 -43 -3 -68 -10 -82 -22 -26 -24
-26 -16 -2 32 34 66 104 112 171 112 27 0 30 3 30 30 0 29 -2 30 -42 29 -24 0
-61 -7 -83 -15z m69 -256 c25 -27 28 -36 24 -80 -13 -126 -150 -138 -186 -17
-11 38 -10 49 3 77 17 38 67 64 105 56 14 -2 38 -19 54 -36z"/>
<path d="M1918 15332 c-41 -23 -46 -30 -41 -52 8 -34 6 -34 52 -10 l41 20 0
-210 0 -210 35 0 35 0 0 245 0 245 -37 -1 c-22 0 -58 -12 -85 -27z"/>
<path d="M30996 15328 c-34 -209 -34 -212 8 -204 49 9 115 -8 145 -38 20 -20
25 -35 25 -68 -3 -81 -87 -120 -183 -87 -37 13 -37 13 -46 -22 -6 -24 -3 -28
30 -39 20 -7 67 -10 105 -8 83 4 130 35 155 103 44 115 -25 215 -149 215 l-49
0 7 38 c3 20 6 47 6 60 0 21 3 22 95 22 l95 0 0 30 0 30 -120 0 -119 0 -5 -32z"/>
<path d="M6133 15243 l-2013 -3 0 -300 0 -300 60 0 60 0 0 245 0 245 1250 0
1250 0 0 -360 0 -360 -1310 0 -1310 0 0 -500 0 -500 60 0 60 0 0 440 0 440
1250 0 1250 0 0 -580 0 -580 -1310 0 -1310 0 0 -360 0 -360 60 0 60 0 0 305 0
305 1250 0 1250 0 0 -420 0 -420 -85 0 c-84 0 -85 0 -85 -25 l0 -25 -1225 0
-1225 0 0 -370 0 -370 60 0 60 0 0 315 0 315 1165 0 1165 0 0 -60 0 -60 85 0
85 0 0 -570 0 -570 -1250 0 -1250 0 0 80 0 80 -60 0 -60 0 0 -1875 0 -1875 60
0 60 0 0 1735 0 1735 1250 0 1250 0 0 -1110 0 -1110 -85 0 -85 0 0 -140 0
-140 85 0 85 0 0 -645 0 -645 -1310 0 -1310 0 0 -300 0 -300 60 0 60 0 0 245
0 245 1250 0 1250 0 0 -455 0 -455 -1310 0 -1310 0 0 -55 0 -55 1365 0 1365 0
0 95 0 95 705 0 705 0 0 55 0 55 -705 0 -705 0 0 765 0 765 645 0 645 0 0
-575 0 -575 60 0 60 0 0 630 0 630 -705 0 -705 0 0 445 0 445 645 0 645 0 0
-275 0 -275 60 0 60 0 0 330 0 330 -705 0 -705 0 0 430 0 430 645 0 645 0 0
-270 0 -270 60 0 60 0 0 325 0 325 -705 0 -705 0 0 450 0 450 645 0 645 0 0
-275 0 -275 60 0 60 0 0 335 0 335 -705 0 -705 0 0 485 0 485 645 0 645 0 0
-300 0 -300 60 0 60 0 0 360 0 360 -705 0 -705 0 0 435 0 435 645 0 645 0 0
-270 0 -270 60 0 60 0 0 325 0 325 -705 0 -705 0 0 605 0 605 645 0 645 0 0
-430 0 -430 60 0 60 0 0 485 0 485 -705 0 -705 0 0 545 0 545 645 0 645 0 0
-395 0 -395 60 0 60 0 0 455 0 455 -57 -2 c-32 -2 -964 -4 -2070 -5z m607
-3203 c0 -27 -3 -30 -30 -30 -27 0 -30 3 -30 30 0 27 3 30 30 30 27 0 30 -3
30 -30z m0 -3760 c0 -27 -3 -30 -30 -30 -27 0 -30 3 -30 30 0 27 3 30 30 30
27 0 30 -3 30 -30z"/>
<path d="M26210 13670 l0 -1490 -40 0 -40 0 0 -140 0 -140 40 0 40 0 0 -1740
0 -1740 -40 0 -40 0 0 -140 0 -140 40 0 40 0 0 -647 0 -648 1390 0 1390 0 0
503 0 502 -60 0 -60 0 0 -445 0 -445 -1270 0 -1270 0 0 590 0 590 40 0 40 0 0
85 0 85 1230 0 1230 0 0 -40 0 -40 60 0 60 0 0 575 0 575 -60 0 -60 0 0 -480
0 -480 -1270 0 -1270 0 0 690 0 690 1270 0 1270 0 0 -25 c0 -24 3 -25 60 -25
l60 0 0 390 0 390 -60 0 -60 0 0 -310 0 -310 -1270 0 -1270 0 0 700 0 700
1270 0 1270 0 0 -205 0 -205 60 0 60 0 0 260 0 260 -665 0 -665 0 0 325 0 325
605 0 605 0 0 -170 0 -170 60 0 60 0 0 225 0 225 -665 0 -665 0 0 295 0 295
605 0 605 0 0 -120 0 -120 60 0 60 0 0 320 0 320 -60 0 -60 0 0 -145 0 -145
-605 0 -605 0 0 325 0 325 665 0 665 0 0 815 0 815 -495 0 -495 0 0 -60 0 -60
435 0 435 0 0 -700 0 -700 -605 0 -605 0 0 760 0 760 -485 0 -485 0 0 -60 0
-60 425 0 425 0 0 -700 0 -700 -605 0 -605 0 0 760 0 760 -60 0 -60 0 0 -1490z
m1330 -465 l0 -325 -605 0 -605 0 0 325 0 325 605 0 605 0 0 -325z m0 -730 l0
-295 -605 0 -605 0 0 295 0 295 605 0 605 0 0 -295z m-1240 -435 c0 -27 -3
-30 -30 -30 -27 0 -30 3 -30 30 0 27 3 30 30 30 27 0 30 -3 30 -30z m1240
-295 l0 -325 -605 0 -605 0 0 240 0 240 40 0 40 0 0 85 0 85 565 0 565 0 0
-325z m-1240 -3465 c0 -27 -3 -30 -30 -30 -27 0 -30 3 -30 30 0 27 3 30 30 30
27 0 30 -3 30 -30z"/>
<path d="M26850 13379 c-69 -28 -103 -95 -98 -195 4 -81 20 -112 79 -152 29
-20 44 -23 99 -20 119 6 175 74 168 204 -4 81 -20 112 -78 152 -36 24 -122 30
-170 11z m134 -67 c84 -76 43 -246 -59 -246 -87 0 -138 132 -82 215 40 59 95
71 141 31z"/>
<path d="M26772 12620 c-28 -17 -33 -18 -38 -5 -4 9 -19 15 -35 15 l-29 0 0
-180 0 -180 35 0 35 0 0 110 c0 124 14 173 54 191 13 6 36 9 51 5 42 -11 55
-57 55 -191 l0 -115 35 0 35 0 0 129 c0 122 1 129 25 155 46 49 115 25 129
-46 3 -17 6 -77 6 -134 l0 -104 35 0 35 0 0 123 c0 67 -5 139 -10 159 -15 54
-61 88 -117 88 -46 0 -113 -31 -113 -52 0 -5 -16 4 -35 21 -43 38 -102 42
-153 11z"/>
<path d="M26810 11745 l0 -265 35 0 35 0 0 63 c1 39 6 69 15 81 17 23 15 25
84 -71 52 -72 53 -73 97 -73 53 0 56 -9 -39 117 l-69 93 67 75 67 75 -45 0
c-44 0 -47 -2 -109 -75 l-63 -76 -3 161 -2 160 -35 0 -35 0 0 -265z"/>
<path d="M5146 14978 c-34 -209 -34 -212 8 -204 49 9 115 -8 145 -38 20 -20
25 -35 25 -68 -3 -81 -87 -120 -183 -87 -37 13 -37 13 -46 -22 -6 -24 -3 -28
30 -39 20 -7 67 -10 105 -8 83 4 130 35 155 103 44 115 -25 215 -149 215 l-49
0 7 38 c3 20 6 47 6 60 0 21 3 22 95 22 l95 0 0 30 0 30 -120 0 -119 0 -5 -32z"/>
<path d="M5556 14855 c-66 -96 -106 -164 -106 -180 l0 -25 110 0 110 0 0 -65
0 -65 35 0 35 0 0 65 0 65 35 0 c31 0 35 3 35 25 0 22 -4 25 -35 25 l-35 0 0
155 0 155 -39 0 -40 0 -105 -155z m114 -50 l0 -105 -74 0 -75 0 72 104 c40 58
73 105 75 105 1 1 2 -46 2 -104z"/>
<path d="M7236 14735 c-66 -96 -106 -164 -106 -180 l0 -25 110 0 110 0 0 -65
0 -65 35 0 35 0 0 65 0 65 35 0 c31 0 35 3 35 25 0 22 -4 25 -35 25 l-35 0 0
155 0 155 -39 0 -40 0 -105 -155z m114 -50 l0 -105 -74 0 -75 0 72 104 c40 58
73 105 75 105 1 1 2 -46 2 -104z"/>
<path d="M7628 14862 c-41 -23 -46 -30 -41 -52 8 -34 6 -34 52 -10 l41 20 0
-210 0 -210 35 0 35 0 0 245 0 245 -37 -1 c-22 0 -58 -12 -85 -27z"/>
<path d="M26831 14528 c-59 -40 -75 -71 -79 -152 -7 -134 47 -206 155 -206 41
0 58 5 82 26 l31 26 0 -96 0 -96 35 0 35 0 0 255 0 255 -35 0 c-26 0 -35 -4
-35 -17 0 -14 -2 -14 -20 2 -14 12 -41 20 -78 23 -47 3 -63 0 -91 -20z m141
-49 c40 -21 61 -122 39 -182 -25 -65 -104 -89 -150 -46 -60 56 -54 178 11 223
26 19 71 21 100 5z"/>
<path d="M15317 14519 c-34 -18 -38 -24 -32 -47 4 -15 8 -28 9 -29 1 -2 20 6
41 17 75 38 145 15 159 -51 11 -56 -30 -125 -138 -233 -58 -57 -96 -104 -96
-116 0 -19 6 -20 160 -20 l160 0 0 30 0 30 -101 0 -101 0 67 72 c95 103 120
149 120 223 -1 101 -47 145 -152 145 -38 -1 -71 -8 -96 -21z"/>
<path d="M15723 14524 c-79 -39 -92 -148 -26 -207 20 -17 20 -18 -18 -56 -36
-35 -39 -43 -39 -93 0 -91 55 -138 160 -138 91 0 152 43 166 116 9 50 -3 85
-44 123 l-37 35 33 32 c27 27 32 39 32 81 0 55 -17 86 -60 108 -38 19 -126 19
-167 -1z m132 -59 c33 -32 33 -75 -1 -109 -31 -30 -44 -32 -85 -11 -76 40 -49
142 39 144 13 1 34 -10 47 -24z m-14 -218 c47 -32 64 -70 48 -108 -25 -63
-117 -75 -159 -22 -30 39 -26 79 14 119 40 40 52 41 97 11z"/>
<path d="M28269 14469 l-29 -31 0 26 c0 22 -4 26 -30 26 l-30 0 0 -180 0 -180
35 0 35 0 0 98 c0 151 23 202 92 202 25 0 28 3 28 35 0 34 -2 35 -36 35 -27 0
-43 -7 -65 -31z"/>
<path d="M17087 14279 c-34 -18 -38 -24 -32 -47 4 -15 8 -28 9 -29 1 -2 20 6
41 17 75 38 145 15 159 -51 11 -56 -30 -125 -138 -233 -58 -57 -96 -104 -96
-116 0 -19 6 -20 160 -20 l160 0 0 30 0 30 -101 0 -101 0 67 72 c95 103 120
149 120 223 -1 101 -47 145 -152 145 -38 -1 -71 -8 -96 -21z"/>
<path d="M17508 14262 c-41 -23 -46 -30 -41 -52 8 -34 6 -34 52 -10 l41 20 0
-210 0 -210 35 0 35 0 0 245 0 245 -37 -1 c-22 0 -58 -12 -85 -27z"/>
<path d="M31105 14124 c-87 -31 -144 -105 -166 -217 -32 -159 41 -277 171
-277 100 0 160 63 160 168 0 114 -51 166 -157 160 -43 -3 -68 -10 -82 -22 -26
-24 -26 -16 -2 32 34 66 104 112 171 112 27 0 30 3 30 30 0 29 -2 30 -42 29
-24 0 -61 -7 -83 -15z m69 -256 c25 -27 28 -36 24 -80 -13 -126 -150 -138
-186 -17 -11 38 -10 49 3 77 17 38 67 64 105 56 14 -2 38 -19 54 -36z"/>
<path d="M5523 13945 c-33 -14 -41 -36 -25 -63 7 -10 14 -10 38 3 63 33 128
16 148 -39 14 -40 -54 -96 -119 -96 -20 0 -25 -5 -25 -24 0 -20 6 -24 45 -29
66 -10 102 -31 115 -71 9 -28 8 -40 -5 -65 -8 -17 -24 -35 -34 -41 -28 -15
-96 -12 -137 5 -34 14 -35 14 -44 -11 -6 -14 -10 -27 -10 -30 0 -14 77 -34
130 -34 115 0 171 44 178 139 4 54 2 60 -28 94 -18 21 -39 37 -48 37 -11 0 -6
10 17 34 59 61 50 155 -19 191 -36 19 -134 19 -177 0z"/>
<path d="M5146 13918 c-34 -209 -34 -212 8 -204 49 9 115 -8 145 -38 20 -20
25 -35 25 -68 -3 -81 -87 -120 -183 -87 -37 13 -37 13 -46 -22 -6 -24 -3 -28
30 -39 20 -7 67 -10 105 -8 83 4 130 35 155 103 44 115 -25 215 -149 215 l-49
0 7 38 c3 20 6 47 6 60 0 21 3 22 95 22 l95 0 0 30 0 30 -120 0 -119 0 -5 -32z"/>
<path d="M1545 13924 c-87 -31 -144 -105 -166 -217 -32 -159 41 -277 171 -277
100 0 160 63 160 168 0 114 -51 166 -157 160 -43 -3 -68 -10 -82 -22 -26 -24
-26 -16 -2 32 34 66 104 112 171 112 27 0 30 3 30 30 0 29 -2 30 -42 29 -24 0
-61 -7 -83 -15z m69 -256 c25 -27 28 -36 24 -80 -13 -126 -150 -138 -186 -17
-11 38 -10 49 3 77 17 38 67 64 105 56 14 -2 38 -19 54 -36z"/>
<path d="M1817 13919 c-34 -18 -38 -24 -32 -47 4 -15 8 -28 9 -29 1 -2 20 6
41 17 75 38 145 15 159 -51 11 -56 -30 -125 -138 -233 -58 -57 -96 -104 -96
-116 0 -19 6 -20 160 -20 l160 0 0 30 0 30 -101 0 -101 0 67 72 c95 103 120
149 120 223 -1 101 -47 145 -152 145 -38 -1 -71 -8 -96 -21z"/>
<path d="M7597 13549 c-34 -18 -38 -24 -32 -47 4 -15 8 -28 9 -29 1 -2 20 6
41 17 75 38 145 15 159 -51 11 -56 -30 -125 -138 -233 -58 -57 -96 -104 -96
-116 0 -19 6 -20 160 -20 l160 0 0 30 0 30 -101 0 -101 0 67 72 c95 103 120
149 120 223 -1 101 -47 145 -152 145 -38 -1 -71 -8 -96 -21z"/>
<path d="M7236 13405 c-66 -96 -106 -164 -106 -180 l0 -25 110 0 110 0 0 -65
0 -65 35 0 35 0 0 65 0 65 35 0 c31 0 35 3 35 25 0 22 -4 25 -35 25 l-35 0 0
155 0 155 -39 0 -40 0 -105 -155z m114 -50 l0 -105 -74 0 -75 0 72 104 c40 58
73 105 75 105 1 1 2 -46 2 -104z"/>
<path d="M28240 13453 c-8 -3 -25 -14 -36 -25 -21 -19 -21 -19 -27 1 -4 16
-13 21 -36 21 l-31 0 0 -255 0 -255 35 0 35 0 0 90 0 89 35 -21 c53 -31 144
-23 186 18 43 40 59 82 59 156 -1 122 -56 189 -155 187 -27 0 -57 -3 -65 -6z
m98 -69 c76 -53 67 -200 -14 -239 -69 -32 -132 12 -141 99 -13 113 77 195 155
140z"/>
<path d="M15317 13359 c-34 -18 -38 -24 -32 -47 4 -15 8 -28 9 -29 1 -2 20 6
41 17 75 38 145 15 159 -51 11 -56 -30 -125 -138 -233 -58 -57 -96 -104 -96
-116 0 -19 6 -20 160 -20 l160 0 0 30 0 30 -101 0 -101 0 67 72 c95 103 120
149 120 223 -1 101 -47 145 -152 145 -38 -1 -71 -8 -96 -21z"/>
<path d="M15720 13358 c-55 -38 -74 -71 -78 -142 -5 -75 13 -117 61 -147 43
-27 145 -23 178 6 l21 20 -16 -40 c-32 -77 -98 -125 -171 -125 -32 0 -35 -2
-35 -30 0 -29 1 -30 48 -30 28 0 67 10 98 24 96 45 144 136 144 275 0 89 -21
143 -69 184 -44 36 -131 39 -181 5z m116 -43 c53 -22 82 -112 53 -167 -17 -32
-74 -51 -115 -38 -96 32 -78 197 24 219 1 1 18 -6 38 -14z"/>
<path d="M5527 12839 c-34 -18 -38 -24 -32 -47 4 -15 8 -28 9 -29 1 -2 20 6
41 17 75 38 145 15 159 -51 11 -56 -30 -125 -138 -233 -58 -57 -96 -104 -96
-116 0 -19 6 -20 160 -20 l160 0 0 30 0 30 -101 0 -101 0 67 72 c95 103 120
149 120 223 -1 101 -47 145 -152 145 -38 -1 -71 -8 -96 -21z"/>
<path d="M5146 12818 c-34 -209 -34 -212 8 -204 49 9 115 -8 145 -38 20 -20
25 -35 25 -68 -3 -81 -87 -120 -183 -87 -37 13 -37 13 -46 -22 -6 -24 -3 -28
30 -39 20 -7 67 -10 105 -8 83 4 130 35 155 103 44 115 -25 215 -149 215 l-49
0 7 38 c3 20 6 47 6 60 0 21 3 22 95 22 l95 0 0 30 0 30 -120 0 -119 0 -5 -32z"/>
<path d="M1505 12654 c-87 -31 -144 -105 -166 -217 -32 -159 41 -277 171 -277
100 0 160 63 160 168 0 114 -51 166 -157 160 -43 -3 -68 -10 -82 -22 -26 -24
-26 -16 -2 32 34 66 104 112 171 112 27 0 30 3 30 30 0 29 -2 30 -42 29 -24 0
-61 -7 -83 -15z m69 -256 c25 -27 28 -36 24 -80 -13 -126 -150 -138 -186 -17
-11 38 -10 49 3 77 17 38 67 64 105 56 14 -2 38 -19 54 -36z"/>
<path d="M1773 12655 c-33 -14 -41 -36 -25 -63 7 -10 14 -10 38 3 63 33 128
16 148 -39 14 -40 -54 -96 -119 -96 -20 0 -25 -5 -25 -24 0 -20 6 -24 45 -29
66 -10 102 -31 115 -71 9 -28 8 -40 -5 -65 -8 -17 -24 -35 -34 -41 -28 -15
-96 -12 -137 5 -34 14 -35 14 -44 -11 -6 -14 -10 -27 -10 -30 0 -14 77 -34
130 -34 115 0 171 44 178 139 4 54 2 60 -28 94 -18 21 -39 37 -48 37 -11 0 -6
10 17 34 59 61 50 155 -19 191 -36 19 -134 19 -177 0z"/>
<path d="M28193 12619 c-29 -19 -34 -19 -39 -5 -4 10 -18 16 -35 16 l-29 0 0
-180 0 -180 35 0 35 0 0 109 c0 59 5 122 11 139 22 63 97 82 140 36 22 -24 24
-34 28 -155 l3 -129 34 0 34 0 0 123 c0 144 -10 187 -51 221 -40 34 -118 36
-166 5z"/>
<path d="M17087 12519 c-34 -18 -38 -24 -32 -47 4 -15 8 -28 9 -29 1 -2 20 6
41 17 75 38 145 15 159 -51 11 -56 -30 -125 -138 -233 -58 -57 -96 -104 -96
-116 0 -19 6 -20 160 -20 l160 0 0 30 0 30 -101 0 -101 0 67 72 c95 103 120
149 120 223 -1 101 -47 145 -152 145 -38 -1 -71 -8 -96 -21z"/>
<path d="M17477 12519 c-34 -18 -38 -24 -32 -47 4 -15 8 -28 9 -29 1 -2 20 6
41 17 75 38 145 15 159 -51 11 -56 -30 -125 -138 -233 -58 -57 -96 -104 -96
-116 0 -19 6 -20 160 -20 l160 0 0 30 0 30 -101 0 -101 0 67 72 c95 103 120
149 120 223 -1 101 -47 145 -152 145 -38 -1 -71 -8 -96 -21z"/>
<path d="M7593 12425 c-33 -14 -41 -36 -25 -63 7 -10 14 -10 38 3 63 33 128
16 148 -39 14 -40 -54 -96 -119 -96 -20 0 -25 -5 -25 -24 0 -20 6 -24 45 -29
66 -10 102 -31 115 -71 9 -28 8 -40 -5 -65 -8 -17 -24 -35 -34 -41 -28 -15
-96 -12 -137 5 -34 14 -35 14 -44 -11 -6 -14 -10 -27 -10 -30 0 -14 77 -34
130 -34 115 0 171 44 178 139 4 54 2 60 -28 94 -18 21 -39 37 -48 37 -11 0 -6
10 17 34 59 61 50 155 -19 191 -36 19 -134 19 -177 0z"/>
<path d="M7236 12275 c-66 -96 -106 -164 -106 -180 l0 -25 110 0 110 0 0 -65
0 -65 35 0 35 0 0 65 0 65 35 0 c31 0 35 3 35 25 0 22 -4 25 -35 25 l-35 0 0
155 0 155 -39 0 -40 0 -105 -155z m114 -50 l0 -105 -74 0 -75 0 72 104 c40 58
73 105 75 105 1 1 2 -46 2 -104z"/>
<path d="M30950 12360 l0 -30 115 0 c63 0 115 -2 115 -4 0 -1 -45 -96 -100
-209 -55 -113 -100 -208 -100 -211 0 -3 17 -6 38 -6 l37 1 103 217 c56 119
102 229 102 245 l0 27 -155 0 -155 0 0 -30z"/>
<path d="M9850 12040 l0 -140 140 0 140 0 0 140 0 140 -140 0 -140 0 0 -140z
m170 0 c0 -27 -3 -30 -30 -30 -27 0 -30 3 -30 30 0 27 3 30 30 30 27 0 30 -3
30 -30z"/>
<path d="M13160 12040 l0 -140 140 0 140 0 0 140 0 140 -140 0 -140 0 0 -140z
m170 0 c0 -27 -3 -30 -30 -30 -27 0 -30 3 -30 30 0 27 3 30 30 30 27 0 30 -3
30 -30z"/>
<path d="M15313 12165 c-33 -14 -41 -36 -25 -63 7 -10 14 -10 38 3 63 33 128
16 148 -39 14 -40 -54 -96 -119 -96 -20 0 -25 -5 -25 -24 0 -20 6 -24 45 -29
66 -10 102 -31 115 -71 9 -28 8 -40 -5 -65 -8 -17 -24 -35 -34 -41 -28 -15
-96 -12 -137 5 -34 14 -35 14 -44 -11 -6 -14 -10 -27 -10 -30 0 -14 77 -34
130 -34 115 0 171 44 178 139 4 54 2 60 -28 94 -18 21 -39 37 -48 37 -11 0 -6
10 17 34 59 61 50 155 -19 191 -36 19 -134 19 -177 0z"/>
<path d="M15750 12173 c-26 -10 -61 -47 -83 -88 -19 -35 -22 -56 -22 -160 0
-106 3 -126 24 -168 30 -61 70 -87 135 -87 65 0 108 28 138 88 20 42 23 61 23
172 0 111 -3 130 -23 168 -29 55 -74 82 -132 81 -25 0 -52 -3 -60 -6z m98 -68
c36 -30 52 -87 52 -182 0 -121 -36 -195 -95 -195 -63 0 -100 86 -93 217 5 92
29 153 68 172 33 17 34 17 68 -12z"/>
<path d="M19610 12040 l0 -140 140 0 140 0 0 140 0 140 -140 0 -140 0 0 -140z
m170 0 c0 -27 -3 -30 -30 -30 -27 0 -30 3 -30 30 0 27 3 30 30 30 27 0 30 -3
30 -30z"/>
<path d="M22860 12040 l0 -140 140 0 140 0 0 140 0 140 -140 0 -140 0 0 -140z
m170 0 c0 -27 -3 -30 -30 -30 -27 0 -30 3 -30 30 0 27 3 30 30 30 27 0 30 -3
30 -30z"/>
<path d="M28220 11745 l0 -265 35 0 35 0 0 265 0 265 -35 0 -35 0 0 -265z"/>
<path d="M1505 11664 c-87 -31 -144 -105 -166 -217 -32 -159 41 -277 171 -277
100 0 160 63 160 168 0 114 -51 166 -157 160 -43 -3 -68 -10 -82 -22 -26 -24
-26 -16 -2 32 34 66 104 112 171 112 27 0 30 3 30 30 0 29 -2 30 -42 29 -24 0
-61 -7 -83 -15z m69 -256 c25 -27 28 -36 24 -80 -13 -126 -150 -138 -186 -17
-11 38 -10 49 3 77 17 38 67 64 105 56 14 -2 38 -19 54 -36z"/>
<path d="M1806 11515 c-66 -96 -106 -164 -106 -180 l0 -25 110 0 110 0 0 -65
0 -65 35 0 35 0 0 65 0 65 35 0 c31 0 35 3 35 25 0 22 -4 25 -35 25 l-35 0 0
155 0 155 -39 0 -40 0 -105 -155z m114 -50 l0 -105 -74 0 -75 0 72 104 c40 58
73 105 75 105 1 1 2 -46 2 -104z"/>
<path d="M5146 11608 c-34 -209 -34 -212 8 -204 49 9 115 -8 145 -38 20 -20
25 -35 25 -68 -3 -81 -87 -120 -183 -87 -37 13 -37 13 -46 -22 -6 -24 -3 -28
30 -39 20 -7 67 -10 105 -8 83 4 130 35 155 103 44 115 -25 215 -149 215 l-49
0 7 38 c3 20 6 47 6 60 0 21 3 22 95 22 l95 0 0 30 0 30 -120 0 -119 0 -5 -32z"/>
<path d="M5558 11612 c-41 -23 -46 -30 -41 -52 8 -34 6 -34 52 -10 l41 20 0
-210 0 -210 35 0 35 0 0 245 0 245 -37 -1 c-22 0 -58 -12 -85 -27z"/>
<path d="M7236 11245 c-66 -96 -106 -164 -106 -180 l0 -25 110 0 110 0 0 -65
0 -65 35 0 35 0 0 65 0 65 35 0 c31 0 35 3 35 25 0 22 -4 25 -35 25 l-35 0 0
155 0 155 -39 0 -40 0 -105 -155z m114 -50 l0 -105 -74 0 -75 0 72 104 c40 58
73 105 75 105 1 1 2 -46 2 -104z"/>
<path d="M7626 11245 c-66 -96 -106 -164 -106 -180 l0 -25 110 0 110 0 0 -65
0 -65 35 0 35 0 0 65 0 65 35 0 c31 0 35 3 35 25 0 22 -4 25 -35 25 l-35 0 0
155 0 155 -39 0 -40 0 -105 -155z m114 -50 l0 -105 -74 0 -75 0 72 104 c40 58
73 105 75 105 1 1 2 -46 2 -104z"/>
<path d="M15313 11125 c-33 -14 -41 -36 -25 -63 7 -10 14 -10 38 3 63 33 128
16 148 -39 14 -40 -54 -96 -119 -96 -20 0 -25 -5 -25 -24 0 -20 6 -24 45 -29
66 -10 102 -31 115 -71 9 -28 8 -40 -5 -65 -8 -17 -24 -35 -34 -41 -28 -15
-96 -12 -137 5 -34 14 -35 14 -44 -11 -6 -14 -10 -27 -10 -30 0 -14 77 -34
130 -34 115 0 171 44 178 139 4 54 2 60 -28 94 -18 21 -39 37 -48 37 -11 0 -6
10 17 34 59 61 50 155 -19 191 -36 19 -134 19 -177 0z"/>
<path d="M15728 11102 c-41 -23 -46 -30 -41 -52 8 -34 6 -34 52 -10 l41 20 0
-210 0 -210 35 0 35 0 0 245 0 245 -37 -1 c-22 0 -58 -12 -85 -27z"/>
<path d="M27541 10901 c-21 -39 20 -82 60 -61 15 9 19 19 17 43 -3 28 -7 32
-35 35 -23 2 -34 -2 -42 -17z"/>
<path d="M27540 10575 c0 -222 -6 -248 -63 -263 -17 -4 -31 -11 -29 -15 1 -4
2 -17 2 -28 0 -19 4 -21 40 -16 23 3 52 13 66 22 47 31 54 66 54 290 l0 205
-35 0 -35 0 0 -195z"/>
<path d="M17087 10699 c-34 -18 -38 -24 -32 -47 4 -15 8 -28 9 -29 1 -2 20 6
41 17 75 38 145 15 159 -51 11 -56 -30 -125 -138 -233 -58 -57 -96 -104 -96
-116 0 -19 6 -20 160 -20 l160 0 0 30 0 30 -101 0 -101 0 67 72 c95 103 120
149 120 223 -1 101 -47 145 -152 145 -38 -1 -71 -8 -96 -21z"/>
<path d="M17473 10705 c-33 -14 -41 -36 -25 -63 7 -10 14 -10 38 3 63 33 128
16 148 -39 14 -40 -54 -96 -119 -96 -20 0 -25 -5 -25 -24 0 -20 6 -24 45 -29
66 -10 102 -31 115 -71 9 -28 8 -40 -5 -65 -8 -17 -24 -35 -34 -41 -28 -15
-96 -12 -137 5 -34 14 -35 14 -44 -11 -6 -14 -10 -27 -10 -30 0 -14 77 -34
130 -34 115 0 171 44 178 139 4 54 2 60 -28 94 -18 21 -39 37 -48 37 -11 0 -6
10 17 34 59 61 50 155 -19 191 -36 19 -134 19 -177 0z"/>
<path d="M1545 10424 c-87 -31 -144 -105 -166 -217 -32 -159 41 -277 171 -277
100 0 160 63 160 168 0 114 -51 166 -157 160 -43 -3 -68 -10 -82 -22 -26 -24
-26 -16 -2 32 34 66 104 112 171 112 27 0 30 3 30 30 0 29 -2 30 -42 29 -24 0
-61 -7 -83 -15z m69 -256 c25 -27 28 -36 24 -80 -13 -126 -150 -138 -186 -17
-11 38 -10 49 3 77 17 38 67 64 105 56 14 -2 38 -19 54 -36z"/>
<path d="M1816 10398 c-34 -209 -34 -212 8 -204 49 9 115 -8 145 -38 20 -20
25 -35 25 -68 -3 -81 -87 -120 -183 -87 -37 13 -37 13 -46 -22 -6 -24 -3 -28
30 -39 20 -7 67 -10 105 -8 83 4 130 35 155 103 44 115 -25 215 -149 215 l-49
0 7 38 c3 20 6 47 6 60 0 21 3 22 95 22 l95 0 0 30 0 30 -120 0 -119 0 -5 -32z"/>
<path d="M31023 10404 c-79 -39 -92 -148 -26 -207 20 -17 20 -18 -18 -56 -36
-35 -39 -43 -39 -93 0 -91 55 -138 160 -138 91 0 152 43 166 116 9 50 -3 85
-44 123 l-37 35 33 32 c27 27 32 39 32 81 0 55 -17 86 -60 108 -38 19 -126 19
-167 -1z m132 -59 c33 -32 33 -75 -1 -109 -31 -30 -44 -32 -85 -11 -76 40 -49
142 39 144 13 1 34 -10 47 -24z m-14 -218 c47 -32 64 -70 48 -108 -25 -63
-117 -75 -159 -22 -30 39 -26 79 14 119 40 40 52 41 97 11z"/>
<path d="M7236 10185 c-66 -96 -106 -164 -106 -180 l0 -25 110 0 110 0 0 -65
0 -65 35 0 35 0 0 65 0 65 35 0 c31 0 35 3 35 25 0 22 -4 25 -35 25 l-35 0 0
155 0 155 -39 0 -40 0 -105 -155z m114 -50 l0 -105 -74 0 -75 0 72 104 c40 58
73 105 75 105 1 1 2 -46 2 -104z"/>
<path d="M7596 10308 c-34 -209 -34 -212 8 -204 49 9 115 -8 145 -38 20 -20
25 -35 25 -68 -3 -81 -87 -120 -183 -87 -37 13 -37 13 -46 -22 -6 -24 -3 -28
30 -39 20 -7 67 -10 105 -8 83 4 130 35 155 103 44 115 -25 215 -149 215 l-49
0 7 38 c3 20 6 47 6 60 0 21 3 22 95 22 l95 0 0 30 0 30 -120 0 -119 0 -5 -32z"/>
<path d="M15313 10145 c-33 -14 -41 -36 -25 -63 7 -10 14 -10 38 3 63 33 128
16 148 -39 14 -40 -54 -96 -119 -96 -20 0 -25 -5 -25 -24 0 -20 6 -24 45 -29
66 -10 102 -31 115 -71 9 -28 8 -40 -5 -65 -8 -17 -24 -35 -34 -41 -28 -15
-96 -12 -137 5 -34 14 -35 14 -44 -11 -6 -14 -10 -27 -10 -30 0 -14 77 -34
130 -34 115 0 171 44 178 139 4 54 2 60 -28 94 -18 21 -39 37 -48 37 -11 0 -6
10 17 34 59 61 50 155 -19 191 -36 19 -134 19 -177 0z"/>
<path d="M15697 10139 c-34 -18 -38 -24 -32 -47 4 -15 8 -28 9 -29 1 -2 20 6
41 17 75 38 145 15 159 -51 11 -56 -30 -125 -138 -233 -58 -57 -96 -104 -96
-116 0 -19 6 -20 160 -20 l160 0 0 30 0 30 -101 0 -101 0 67 72 c95 103 120
149 120 223 -1 101 -47 145 -152 145 -38 -1 -71 -8 -96 -21z"/>
<path d="M27531 9371 c-21 -39 20 -82 60 -61 15 9 19 19 17 43 -3 28 -7 32
-35 35 -23 2 -34 -2 -42 -17z"/>
<path d="M7705 9364 c-87 -31 -144 -105 -166 -217 -32 -159 41 -277 171 -277
100 0 160 63 160 168 0 114 -51 166 -157 160 -43 -3 -68 -10 -82 -22 -26 -24
-26 -16 -2 32 34 66 104 112 171 112 27 0 30 3 30 30 0 29 -2 30 -42 29 -24 0
-61 -7 -83 -15z m69 -256 c25 -27 28 -36 24 -80 -13 -126 -150 -138 -186 -17
-11 38 -10 49 3 77 17 38 67 64 105 56 14 -2 38 -19 54 -36z"/>
<path d="M7236 9215 c-66 -96 -106 -164 -106 -180 l0 -25 110 0 110 0 0 -65 0
-65 35 0 35 0 0 65 0 65 35 0 c31 0 35 3 35 25 0 22 -4 25 -35 25 l-35 0 0
155 0 155 -39 0 -40 0 -105 -155z m114 -50 l0 -105 -74 0 -75 0 72 104 c40 58
73 105 75 105 1 1 2 -46 2 -104z"/>
<path d="M15313 9255 c-33 -14 -41 -36 -25 -63 7 -10 14 -10 38 3 63 33 128
16 148 -39 14 -40 -54 -96 -119 -96 -20 0 -25 -5 -25 -24 0 -20 6 -24 45 -29
66 -10 102 -31 115 -71 9 -28 8 -40 -5 -65 -8 -17 -24 -35 -34 -41 -28 -15
-96 -12 -137 5 -34 14 -35 14 -44 -11 -6 -14 -10 -27 -10 -30 0 -14 77 -34
130 -34 115 0 171 44 178 139 4 54 2 60 -28 94 -18 21 -39 37 -48 37 -11 0 -6
10 17 34 59 61 50 155 -19 191 -36 19 -134 19 -177 0z"/>
<path d="M15693 9255 c-33 -14 -41 -36 -25 -63 7 -10 14 -10 38 3 63 33 128
16 148 -39 14 -40 -54 -96 -119 -96 -20 0 -25 -5 -25 -24 0 -20 6 -24 45 -29
66 -10 102 -31 115 -71 9 -28 8 -40 -5 -65 -8 -17 -24 -35 -34 -41 -28 -15
-96 -12 -137 5 -34 14 -35 14 -44 -11 -6 -14 -10 -27 -10 -30 0 -14 77 -34
130 -34 115 0 171 44 178 139 4 54 2 60 -28 94 -18 21 -39 37 -48 37 -11 0 -6
10 17 34 59 61 50 155 -19 191 -36 19 -134 19 -177 0z"/>
<path d="M27530 9060 l0 -180 35 0 35 0 0 180 0 180 -35 0 -35 0 0 -180z"/>
<path d="M1545 9144 c-87 -31 -144 -105 -166 -217 -32 -159 41 -277 171 -277
100 0 160 63 160 168 0 114 -51 166 -157 160 -43 -3 -68 -10 -82 -22 -26 -24
-26 -16 -2 32 34 66 104 112 171 112 27 0 30 3 30 30 0 29 -2 30 -42 29 -24 0
-61 -7 -83 -15z m69 -256 c25 -27 28 -36 24 -80 -13 -126 -150 -138 -186 -17
-11 38 -10 49 3 77 17 38 67 64 105 56 14 -2 38 -19 54 -36z"/>
<path d="M1925 9144 c-87 -31 -144 -105 -166 -217 -32 -159 41 -277 171 -277
100 0 160 63 160 168 0 114 -51 166 -157 160 -43 -3 -68 -10 -82 -22 -26 -24
-26 -16 -2 32 34 66 104 112 171 112 27 0 30 3 30 30 0 29 -2 30 -42 29 -24 0
-61 -7 -83 -15z m69 -256 c25 -27 28 -36 24 -80 -13 -126 -150 -138 -186 -17
-11 38 -10 49 3 77 17 38 67 64 105 56 14 -2 38 -19 54 -36z"/>
<path d="M17087 9079 c-34 -18 -38 -24 -32 -47 4 -15 8 -28 9 -29 1 -2 20 6
41 17 75 38 145 15 159 -51 11 -56 -30 -125 -138 -233 -58 -57 -96 -104 -96
-116 0 -19 6 -20 160 -20 l160 0 0 30 0 30 -101 0 -101 0 67 72 c95 103 120
149 120 223 -1 101 -47 145 -152 145 -38 -1 -71 -8 -96 -21z"/>
<path d="M17506 8935 c-66 -96 -106 -164 -106 -180 l0 -25 110 0 110 0 0 -65
0 -65 35 0 35 0 0 65 0 65 35 0 c31 0 35 3 35 25 0 22 -4 25 -35 25 l-35 0 0
155 0 155 -39 0 -40 0 -105 -155z m114 -50 l0 -105 -74 0 -75 0 72 104 c40 58
73 105 75 105 1 1 2 -46 2 -104z"/>
<path d="M5580 9053 c-26 -10 -61 -47 -83 -88 -19 -35 -22 -56 -22 -160 0
-106 3 -126 24 -168 30 -61 70 -87 135 -87 65 0 108 28 138 88 20 42 23 61 23
172 0 111 -3 130 -23 168 -29 55 -74 82 -132 81 -25 0 -52 -3 -60 -6z m98 -68
c36 -30 52 -87 52 -182 0 -121 -36 -195 -95 -195 -63 0 -100 86 -93 217 5 92
29 153 68 172 33 17 34 17 68 -12z"/>
<path d="M5146 9018 c-34 -209 -34 -212 8 -204 49 9 115 -8 145 -38 20 -20 25
-35 25 -68 -3 -81 -87 -120 -183 -87 -37 13 -37 13 -46 -22 -6 -24 -3 -28 30
-39 20 -7 67 -10 105 -8 83 4 130 35 155 103 44 115 -25 215 -149 215 l-49 0
7 38 c3 20 6 47 6 60 0 21 3 22 95 22 l95 0 0 30 0 30 -120 0 -119 0 -5 -32z"/>
<path d="M31020 8668 c-55 -38 -74 -71 -78 -142 -5 -75 13 -117 61 -147 43
-27 145 -23 178 6 l21 20 -16 -40 c-32 -77 -98 -125 -171 -125 -32 0 -35 -2
-35 -30 0 -29 1 -30 48 -30 28 0 67 10 98 24 96 45 144 136 144 275 0 89 -21
143 -69 184 -44 36 -131 39 -181 5z m116 -43 c53 -22 82 -112 53 -167 -17 -32
-74 -51 -115 -38 -96 32 -78 197 24 219 1 1 18 -6 38 -14z"/>
<path d="M15313 8425 c-33 -14 -41 -36 -25 -63 7 -10 14 -10 38 3 63 33 128
16 148 -39 14 -40 -54 -96 -119 -96 -20 0 -25 -5 -25 -24 0 -20 6 -24 45 -29
66 -10 102 -31 115 -71 9 -28 8 -40 -5 -65 -8 -17 -24 -35 -34 -41 -28 -15
-96 -12 -137 5 -34 14 -35 14 -44 -11 -6 -14 -10 -27 -10 -30 0 -14 77 -34
130 -34 115 0 171 44 178 139 4 54 2 60 -28 94 -18 21 -39 37 -48 37 -11 0 -6
10 17 34 59 61 50 155 -19 191 -36 19 -134 19 -177 0z"/>
<path d="M15726 8275 c-66 -96 -106 -164 -106 -180 l0 -25 110 0 110 0 0 -65
0 -65 35 0 35 0 0 65 0 65 35 0 c31 0 35 3 35 25 0 22 -4 25 -35 25 l-35 0 0
155 0 155 -39 0 -40 0 -105 -155z m114 -50 l0 -105 -74 0 -75 0 72 104 c40 58
73 105 75 105 1 1 2 -46 2 -104z"/>
<path d="M9850 8280 l0 -140 140 0 140 0 0 140 0 140 -140 0 -140 0 0 -140z
m170 0 c0 -27 -3 -30 -30 -30 -27 0 -30 3 -30 30 0 27 3 30 30 30 27 0 30 -3
30 -30z"/>
<path d="M13160 8280 l0 -140 140 0 140 0 0 140 0 140 -140 0 -140 0 0 -140z
m170 0 c0 -27 -3 -30 -30 -30 -27 0 -30 3 -30 30 0 27 3 30 30 30 27 0 30 -3
30 -30z"/>
<path d="M19610 8280 l0 -140 140 0 140 0 0 140 0 140 -140 0 -140 0 0 -140z
m170 0 c0 -27 -3 -30 -30 -30 -27 0 -30 3 -30 30 0 27 3 30 30 30 27 0 30 -3
30 -30z"/>
<path d="M22860 8280 l0 -140 140 0 140 0 0 140 0 140 -140 0 -140 0 0 -140z
m170 0 c0 -27 -3 -30 -30 -30 -27 0 -30 3 -30 30 0 27 3 30 30 30 27 0 30 -3
30 -30z"/>
<path d="M7236 8205 c-66 -96 -106 -164 -106 -180 l0 -25 110 0 110 0 0 -65 0
-65 35 0 35 0 0 65 0 65 35 0 c31 0 35 3 35 25 0 22 -4 25 -35 25 l-35 0 0
155 0 155 -39 0 -40 0 -105 -155z m114 -50 l0 -105 -74 0 -75 0 72 104 c40 58
73 105 75 105 1 1 2 -46 2 -104z"/>
<path d="M7550 8330 l0 -30 115 0 c63 0 115 -2 115 -4 0 -1 -45 -96 -100 -209
-55 -113 -100 -208 -100 -211 0 -3 17 -6 38 -6 l37 1 103 217 c56 119 102 229
102 245 l0 27 -155 0 -155 0 0 -30z"/>
<path d="M17087 8209 c-34 -18 -38 -24 -32 -47 4 -15 8 -28 9 -29 1 -2 20 6
41 17 75 38 145 15 159 -51 11 -56 -30 -125 -138 -233 -58 -57 -96 -104 -96
-116 0 -19 6 -20 160 -20 l160 0 0 30 0 30 -101 0 -101 0 67 72 c95 103 120
149 120 223 -1 101 -47 145 -152 145 -38 -1 -71 -8 -96 -21z"/>
<path d="M17476 8188 c-34 -209 -34 -212 8 -204 49 9 115 -8 145 -38 20 -20
25 -35 25 -68 -3 -81 -87 -120 -183 -87 -37 13 -37 13 -46 -22 -6 -24 -3 -28
30 -39 20 -7 67 -10 105 -8 83 4 130 35 155 103 44 115 -25 215 -149 215 l-49
0 7 38 c3 20 6 47 6 60 0 21 3 22 95 22 l95 0 0 30 0 30 -120 0 -119 0 -5 -32z"/>
<path d="M1545 8034 c-87 -31 -144 -105 -166 -217 -32 -159 41 -277 171 -277
100 0 160 63 160 168 0 114 -51 166 -157 160 -43 -3 -68 -10 -82 -22 -26 -24
-26 -16 -2 32 34 66 104 112 171 112 27 0 30 3 30 30 0 29 -2 30 -42 29 -24 0
-61 -7 -83 -15z m69 -256 c25 -27 28 -36 24 -80 -13 -126 -150 -138 -186 -17
-11 38 -10 49 3 77 17 38 67 64 105 56 14 -2 38 -19 54 -36z"/>
<path d="M1770 8010 l0 -30 115 0 c63 0 115 -2 115 -4 0 -1 -45 -96 -100 -209
-55 -113 -100 -208 -100 -211 0 -3 17 -6 38 -6 l37 1 103 217 c56 119 102 229
102 245 l0 27 -155 0 -155 0 0 -30z"/>
<path d="M27410 7635 l0 -265 35 0 35 0 0 109 c0 59 5 122 11 139 22 63 97 82
140 36 22 -24 24 -34 28 -155 l3 -129 34 0 34 0 0 123 c0 145 -10 187 -52 222
-28 24 -39 27 -90 23 -43 -3 -64 -10 -83 -28 l-25 -23 0 106 0 107 -35 0 -35
0 0 -265z"/>
<path d="M17087 7379 c-34 -18 -38 -24 -32 -47 4 -15 8 -28 9 -29 1 -2 20 6
41 17 75 38 145 15 159 -51 11 -56 -30 -125 -138 -233 -58 -57 -96 -104 -96
-116 0 -19 6 -20 160 -20 l160 0 0 30 0 30 -101 0 -101 0 67 72 c95 103 120
149 120 223 -1 101 -47 145 -152 145 -38 -1 -71 -8 -96 -21z"/>
<path d="M17585 7384 c-87 -31 -144 -105 -166 -217 -32 -159 41 -277 171 -277
100 0 160 63 160 168 0 114 -51 166 -157 160 -43 -3 -68 -10 -82 -22 -26 -24
-26 -16 -2 32 34 66 104 112 171 112 27 0 30 3 30 30 0 29 -2 30 -42 29 -24 0
-61 -7 -83 -15z m69 -256 c25 -27 28 -36 24 -80 -13 -126 -150 -138 -186 -17
-11 38 -10 49 3 77 17 38 67 64 105 56 14 -2 38 -19 54 -36z"/>
<path d="M7623 7104 c-79 -39 -92 -148 -26 -207 20 -17 20 -18 -18 -56 -36
-35 -39 -43 -39 -93 0 -91 55 -138 160 -138 91 0 152 43 166 116 9 50 -3 85
-44 123 l-37 35 33 32 c27 27 32 39 32 81 0 55 -17 86 -60 108 -38 19 -126 19
-167 -1z m132 -59 c33 -32 33 -75 -1 -109 -31 -30 -44 -32 -85 -11 -76 40 -49
142 39 144 13 1 34 -10 47 -24z m-14 -218 c47 -32 64 -70 48 -108 -25 -63
-117 -75 -159 -22 -30 39 -26 79 14 119 40 40 52 41 97 11z"/>
<path d="M7236 6955 c-66 -96 -106 -164 -106 -180 l0 -25 110 0 110 0 0 -65 0
-65 35 0 35 0 0 65 0 65 35 0 c31 0 35 3 35 25 0 22 -4 25 -35 25 l-35 0 0
155 0 155 -39 0 -40 0 -105 -155z m114 -50 l0 -105 -74 0 -75 0 72 104 c40 58
73 105 75 105 1 1 2 -46 2 -104z"/>
<path d="M15313 6975 c-33 -14 -41 -36 -25 -63 7 -10 14 -10 38 3 63 33 128
16 148 -39 14 -40 -54 -96 -119 -96 -20 0 -25 -5 -25 -24 0 -20 6 -24 45 -29
66 -10 102 -31 115 -71 9 -28 8 -40 -5 -65 -8 -17 -24 -35 -34 -41 -28 -15
-96 -12 -137 5 -34 14 -35 14 -44 -11 -6 -14 -10 -27 -10 -30 0 -14 77 -34
130 -34 115 0 171 44 178 139 4 54 2 60 -28 94 -18 21 -39 37 -48 37 -11 0 -6
10 17 34 59 61 50 155 -19 191 -36 19 -134 19 -177 0z"/>
<path d="M15696 6948 c-34 -209 -34 -212 8 -204 49 9 115 -8 145 -38 20 -20
25 -35 25 -68 -3 -81 -87 -120 -183 -87 -37 13 -37 13 -46 -22 -6 -24 -3 -28
30 -39 20 -7 67 -10 105 -8 83 4 130 35 155 103 44 115 -25 215 -149 215 l-49
0 7 38 c3 20 6 47 6 60 0 21 3 22 95 22 l95 0 0 30 0 30 -120 0 -119 0 -5 -32z"/>
<path d="M31220 6963 c-26 -10 -61 -47 -83 -88 -19 -35 -22 -56 -22 -160 0
-106 3 -126 24 -168 30 -61 70 -87 135 -87 65 0 108 28 138 88 20 42 23 61 23
172 0 111 -3 130 -23 168 -29 55 -74 82 -132 81 -25 0 -52 -3 -60 -6z m98 -68
c36 -30 52 -87 52 -182 0 -121 -36 -195 -95 -195 -63 0 -100 86 -93 217 5 92
29 153 68 172 33 17 34 17 68 -12z"/>
<path d="M30818 6932 c-41 -23 -46 -30 -41 -52 8 -34 6 -34 52 -10 l41 20 0
-210 0 -210 35 0 35 0 0 245 0 245 -37 -1 c-22 0 -58 -12 -85 -27z"/>
<path d="M1545 6914 c-87 -31 -144 -105 -166 -217 -32 -159 41 -277 171 -277
100 0 160 63 160 168 0 114 -51 166 -157 160 -43 -3 -68 -10 -82 -22 -26 -24
-26 -16 -2 32 34 66 104 112 171 112 27 0 30 3 30 30 0 29 -2 30 -42 29 -24 0
-61 -7 -83 -15z m69 -256 c25 -27 28 -36 24 -80 -13 -126 -150 -138 -186 -17
-11 38 -10 49 3 77 17 38 67 64 105 56 14 -2 38 -19 54 -36z"/>
<path d="M1843 6914 c-79 -39 -92 -148 -26 -207 20 -17 20 -18 -18 -56 -36
-35 -39 -43 -39 -93 0 -91 55 -138 160 -138 91 0 152 43 166 116 9 50 -3 85
-44 123 l-37 35 33 32 c27 27 32 39 32 81 0 55 -17 86 -60 108 -38 19 -126 19
-167 -1z m132 -59 c33 -32 33 -75 -1 -109 -31 -30 -44 -32 -85 -11 -76 40 -49
142 39 144 13 1 34 -10 47 -24z m-14 -218 c47 -32 64 -70 48 -108 -25 -63
-117 -75 -159 -22 -30 39 -26 79 14 119 40 40 52 41 97 11z"/>
<path d="M5550 6558 c-55 -38 -74 -71 -78 -142 -5 -75 13 -117 61 -147 43 -27
145 -23 178 6 l21 20 -16 -40 c-32 -77 -98 -125 -171 -125 -32 0 -35 -2 -35
-30 0 -29 1 -30 48 -30 28 0 67 10 98 24 96 45 144 136 144 275 0 89 -21 143
-69 184 -44 36 -131 39 -181 5z m116 -43 c53 -22 82 -112 53 -167 -17 -32 -74
-51 -115 -38 -96 32 -78 197 24 219 1 1 18 -6 38 -14z"/>
<path d="M5176 6415 c-66 -96 -106 -164 -106 -180 l0 -25 110 0 110 0 0 -65 0
-65 35 0 35 0 0 65 0 65 35 0 c31 0 35 3 35 25 0 22 -4 25 -35 25 l-35 0 0
155 0 155 -39 0 -40 0 -105 -155z m114 -50 l0 -105 -74 0 -75 0 72 104 c40 58
73 105 75 105 1 1 2 -46 2 -104z"/>
<path d="M17087 6469 c-34 -18 -38 -24 -32 -47 4 -15 8 -28 9 -29 1 -2 20 6
41 17 75 38 145 15 159 -51 11 -56 -30 -125 -138 -233 -58 -57 -96 -104 -96
-116 0 -19 6 -20 160 -20 l160 0 0 30 0 30 -101 0 -101 0 67 72 c95 103 120
149 120 223 -1 101 -47 145 -152 145 -38 -1 -71 -8 -96 -21z"/>
<path d="M17430 6450 l0 -30 115 0 c63 0 115 -2 115 -4 0 -1 -45 -96 -100
-209 -55 -113 -100 -208 -100 -211 0 -3 17 -6 38 -6 l37 1 103 217 c56 119
102 229 102 245 l0 27 -155 0 -155 0 0 -30z"/>
<path d="M27719 5675 c-34 -18 -59 -72 -59 -124 0 -37 -2 -41 -25 -41 -20 0
-25 -5 -25 -25 0 -20 5 -25 25 -25 l25 0 0 -155 0 -155 35 0 35 0 0 155 0 155
45 0 c41 0 45 2 45 25 0 23 -4 25 -46 25 l-47 0 5 45 c7 59 22 75 69 75 29 0
39 5 44 20 3 11 3 24 0 30 -9 15 -96 11 -126 -5z"/>
<path d="M23930 5415 l0 -265 30 0 c26 0 30 4 30 28 1 23 2 24 11 9 29 -49
142 -64 199 -24 59 40 75 70 78 156 5 92 -18 149 -71 182 -46 29 -146 23 -182
-11 l-25 -23 0 106 0 107 -35 0 -35 0 0 -265z m215 39 c40 -19 65 -66 65 -124
0 -111 -97 -168 -172 -101 -31 27 -33 34 -33 94 0 71 19 110 66 134 31 16 35
16 74 -3z"/>
<path d="M25950 5580 l0 -101 -29 22 c-25 18 -39 21 -90 17 -50 -4 -66 -9 -92
-34 -43 -40 -59 -82 -59 -156 0 -79 27 -140 72 -168 58 -35 158 -23 189 23 4
5 10 0 14 -12 4 -15 15 -21 36 -21 l29 0 0 265 0 265 -35 0 -35 0 0 -100z
m-43 -136 c30 -19 47 -77 40 -137 -18 -148 -182 -143 -195 6 -10 118 70 185
155 131z"/>
<path d="M1545 5594 c-87 -31 -144 -105 -166 -217 -32 -159 41 -277 171 -277
100 0 160 63 160 168 0 114 -51 166 -157 160 -43 -3 -68 -10 -82 -22 -26 -24
-26 -16 -2 32 34 66 104 112 171 112 27 0 30 3 30 30 0 29 -2 30 -42 29 -24 0
-61 -7 -83 -15z m69 -256 c25 -27 28 -36 24 -80 -13 -126 -150 -138 -186 -17
-11 38 -10 49 3 77 17 38 67 64 105 56 14 -2 38 -19 54 -36z"/>
<path d="M1840 5588 c-55 -38 -74 -71 -78 -142 -5 -75 13 -117 61 -147 43 -27
145 -23 178 6 l21 20 -16 -40 c-32 -77 -98 -125 -171 -125 -32 0 -35 -2 -35
-30 0 -29 1 -30 48 -30 28 0 67 10 98 24 96 45 144 136 144 275 0 89 -21 143
-69 184 -44 36 -131 39 -181 5z m116 -43 c53 -22 82 -112 53 -167 -17 -32 -74
-51 -115 -38 -96 32 -78 197 24 219 1 1 18 -6 38 -14z"/>
<path d="M23158 5508 c-28 -9 -35 -31 -20 -55 6 -9 18 -9 51 3 52 18 95 11
116 -19 29 -41 20 -57 -30 -57 -85 0 -160 -47 -171 -107 -8 -44 2 -80 31 -109
32 -32 114 -34 163 -4 26 16 32 17 32 5 0 -10 10 -15 33 -15 l32 0 -3 143 c-5
156 -13 187 -62 212 -33 17 -130 19 -172 3z m162 -217 c0 -89 -101 -134 -140
-61 -24 46 32 99 108 100 31 0 32 -2 32 -39z"/>
<path d="M24965 5507 c-43 -20 -93 -80 -101 -122 -10 -58 1 -143 22 -172 38
-51 70 -67 142 -71 87 -5 121 8 115 41 -5 24 -7 25 -62 20 -42 -4 -66 -1 -90
11 -56 30 -77 114 -45 182 23 49 64 68 135 61 55 -5 57 -4 62 22 3 14 3 28 0
31 -11 12 -150 9 -178 -3z"/>
<path d="M26729 5497 c-18 -12 -44 -40 -57 -62 -31 -54 -29 -178 4 -222 40
-54 80 -73 155 -73 87 0 121 12 117 43 -2 17 -9 21 -28 20 -84 -8 -120 -6
-144 7 -30 16 -56 57 -56 90 0 19 6 20 125 20 l125 0 0 42 c0 54 -32 119 -69
141 -44 26 -129 23 -172 -6z m142 -56 c16 -16 29 -39 29 -50 0 -20 -6 -21 -90
-21 -97 0 -101 3 -73 50 33 56 90 65 134 21z"/>
<path d="M28740 5498 c-58 -40 -74 -71 -78 -152 -5 -86 19 -145 71 -176 43
-27 121 -26 165 0 32 20 32 20 32 0 0 -30 -24 -82 -46 -101 -31 -27 -76 -31
-129 -14 -51 18 -64 12 -65 -27 0 -43 183 -52 237 -12 62 46 68 69 71 292 l4
202 -31 0 c-25 0 -31 -4 -31 -21 0 -20 -1 -20 -31 5 -41 35 -121 37 -169 4z
m124 -38 c86 -32 88 -206 3 -246 -30 -14 -37 -14 -70 0 -88 36 -90 197 -4 240
38 19 39 19 71 6z"/>
<path d="M4700 5240 l0 -60 855 0 855 0 0 -850 0 -850 -795 0 -795 0 0 670 0
670 -60 0 -60 0 0 -140 0 -140 -175 0 -175 0 0 -305 0 -305 55 0 55 0 0 250 0
250 120 0 120 0 0 -475 0 -475 -45 0 -45 0 0 -220 0 -220 55 0 55 0 0 165 0
165 2070 0 2070 0 0 530 0 530 835 0 835 0 0 55 0 55 -200 0 -200 0 0 85 0 85
-140 0 -140 0 0 -85 0 -85 -270 0 -270 0 0 380 0 380 -960 0 -960 0 0 -530 0
-530 250 0 250 0 0 -380 0 -380 -685 0 -685 0 0 850 0 850 280 0 280 0 0 60 0
60 -1190 0 -1190 0 0 -60z m4500 -380 l0 -320 -225 0 -225 0 0 -530 0 -530
-375 0 -375 0 0 435 0 435 -250 0 -250 0 0 415 0 415 850 0 850 0 0 -320z
m820 -290 c0 -27 -3 -30 -30 -30 -27 0 -30 3 -30 30 0 27 3 30 30 30 27 0 30
-3 30 -30z"/>
<path d="M21490 4645 l0 -105 -800 0 -800 0 0 85 0 85 -140 0 -140 0 0 -85 0
-85 -1170 0 -1170 0 0 -55 0 -55 835 0 835 0 0 -555 0 -555 -1500 0 -1500 0 0
-55 0 -55 2690 0 2690 0 0 135 0 135 115 0 115 0 0 55 0 55 -115 0 -115 0 0
50 0 50 -55 0 -55 0 0 -185 0 -185 -705 0 -705 0 0 555 0 555 705 0 705 0 0
-220 0 -220 55 0 55 0 0 220 0 220 85 0 85 0 0 -85 0 -85 60 0 60 0 0 245 0
245 -60 0 -60 0 0 -105z m-1710 -75 c0 -27 -3 -30 -30 -30 -27 0 -30 3 -30 30
0 27 3 30 30 30 27 0 30 -3 30 -30z m-90 -695 l0 -555 -320 0 -320 0 0 555 0
555 320 0 320 0 0 -555z"/>
<path d="M6570 4570 l0 -140 140 0 140 0 0 140 0 140 -140 0 -140 0 0 -140z
m170 0 c0 -27 -3 -30 -30 -30 -27 0 -30 3 -30 30 0 27 3 30 30 30 27 0 30 -3
30 -30z"/>
<path d="M3350 1070 l0 -140 140 0 140 0 0 140 0 140 -140 0 -140 0 0 -140z
m170 0 c0 -27 -3 -30 -30 -30 -27 0 -30 3 -30 30 0 27 3 30 30 30 27 0 30 -3
30 -30z"/>
<path d="M6570 1070 l0 -140 140 0 140 0 0 140 0 140 -140 0 -140 0 0 -140z
m170 0 c0 -27 -3 -30 -30 -30 -27 0 -30 3 -30 30 0 27 3 30 30 30 27 0 30 -3
30 -30z"/>
<path d="M9850 1070 l0 -140 140 0 140 0 0 140 0 140 -140 0 -140 0 0 -140z
m170 0 c0 -27 -3 -30 -30 -30 -27 0 -30 3 -30 30 0 27 3 30 30 30 27 0 30 -3
30 -30z"/>
<path d="M13160 1070 l0 -140 140 0 140 0 0 140 0 140 -140 0 -140 0 0 -140z
m170 0 c0 -27 -3 -30 -30 -30 -27 0 -30 3 -30 30 0 27 3 30 30 30 27 0 30 -3
30 -30z"/>
<path d="M16430 1070 l0 -140 140 0 140 0 0 140 0 140 -140 0 -140 0 0 -140z
m170 0 c0 -27 -3 -30 -30 -30 -27 0 -30 3 -30 30 0 27 3 30 30 30 27 0 30 -3
30 -30z"/>
<path d="M19610 1070 l0 -140 140 0 140 0 0 140 0 140 -140 0 -140 0 0 -140z
m170 0 c0 -27 -3 -30 -30 -30 -27 0 -30 3 -30 30 0 27 3 30 30 30 27 0 30 -3
30 -30z"/>
<path d="M26130 1070 l0 -140 140 0 140 0 0 140 0 140 -140 0 -140 0 0 -140z
m170 0 c0 -27 -3 -30 -30 -30 -27 0 -30 3 -30 30 0 27 3 30 30 30 27 0 30 -3
30 -30z"/>
<path class="room" id="10" d="M29390 1070 l0 -140 140 0 140 0 0 140 0 140 -140 0 -140 0 0 -140z
m170 0 c0 -27 -3 -30 -30 -30 -27 0 -30 3 -30 30 0 27 3 30 30 30 27 0 30 -3
30 -30z"/>
</g>
</svg>
